<mxfile host="Electron" modified="2024-10-31T01:26:52.787Z" agent="Mozilla/5.0 (Macintosh; Intel Mac OS X 10_15_7) AppleWebKit/537.36 (KHTML, like Gecko) draw.io/24.6.4 Chrome/124.0.6367.207 Electron/30.0.6 Safari/537.36" etag="cZCKZVicIm9YqpCz8ntz" version="24.6.4" type="device" pages="5">
  <diagram id="flseb2WLQNARs3jyu6Be" name="PromptRange">
    <mxGraphModel dx="4213" dy="2469" grid="1" gridSize="10" guides="1" tooltips="1" connect="1" arrows="1" fold="1" page="1" pageScale="1" pageWidth="827" pageHeight="1169" math="0" shadow="0">
      <root>
        <mxCell id="0" />
        <mxCell id="1" parent="0" />
        <mxCell id="-jOVKSL9LvcgH3OS2Tkx-63" value="" style="verticalLabelPosition=bottom;verticalAlign=top;html=1;strokeWidth=4;shape=mxgraph.flowchart.on-page_reference;plain-blue;gradientColor=none;fillColor=#B5E3Fe;strokeColor=#000000;" parent="1" vertex="1">
          <mxGeometry x="249.25" y="726" width="30" height="30" as="geometry" />
        </mxCell>
        <mxCell id="-jOVKSL9LvcgH3OS2Tkx-67" value="" style="edgeStyle=orthogonalEdgeStyle;rounded=0;html=1;jettySize=auto;orthogonalLoop=1;strokeWidth=4;endArrow=none;endFill=0;" parent="1" target="-jOVKSL9LvcgH3OS2Tkx-63" edge="1">
          <mxGeometry x="192.25" y="211" as="geometry">
            <mxPoint x="137" y="741" as="sourcePoint" />
          </mxGeometry>
        </mxCell>
        <mxCell id="-jOVKSL9LvcgH3OS2Tkx-68" value="靶场 1&lt;div&gt;&lt;span style=&quot;font-weight: normal;&quot;&gt;(2024.7.27.&lt;/span&gt;1&lt;span style=&quot;font-weight: normal;&quot;&gt;)&lt;/span&gt;&lt;/div&gt;" style="text;html=1;strokeColor=none;fillColor=none;align=center;verticalAlign=middle;whiteSpace=wrap;overflow=hidden;fontSize=14;fontStyle=1;fontFamily=Courier New;" parent="1" vertex="1">
          <mxGeometry x="11.63" y="720" width="110" height="42" as="geometry" />
        </mxCell>
        <mxCell id="-jOVKSL9LvcgH3OS2Tkx-69" value="(Range)" style="text;html=1;strokeColor=none;fillColor=none;align=center;verticalAlign=middle;whiteSpace=wrap;overflow=hidden;fontSize=14;fontStyle=0;fontColor=#009900;" parent="1" vertex="1">
          <mxGeometry x="-8.37" y="756" width="146.75" height="30" as="geometry" />
        </mxCell>
        <mxCell id="-jOVKSL9LvcgH3OS2Tkx-80" value="" style="edgeStyle=orthogonalEdgeStyle;shape=connector;curved=1;rounded=0;orthogonalLoop=1;jettySize=auto;html=1;strokeColor=default;strokeWidth=4;align=center;verticalAlign=middle;fontFamily=Helvetica;fontSize=15;fontColor=default;labelBackgroundColor=default;endArrow=none;endFill=0;" parent="1" source="-jOVKSL9LvcgH3OS2Tkx-75" target="-jOVKSL9LvcgH3OS2Tkx-79" edge="1">
          <mxGeometry relative="1" as="geometry" />
        </mxCell>
        <mxCell id="-jOVKSL9LvcgH3OS2Tkx-75" value="靶道 1 / 瞄准 1&lt;div&gt;（&lt;b&gt;T&lt;/b&gt;actic / &lt;b&gt;A&lt;/b&gt;im）&lt;/div&gt;" style="verticalLabelPosition=bottom;verticalAlign=top;html=1;strokeWidth=4;shape=mxgraph.flowchart.on-page_reference;plain-purple;gradientColor=none;strokeColor=#000000;fillColor=#D5E8D4;" parent="1" vertex="1">
          <mxGeometry x="359.25" y="726" width="30" height="30" as="geometry" />
        </mxCell>
        <mxCell id="-jOVKSL9LvcgH3OS2Tkx-76" style="edgeStyle=orthogonalEdgeStyle;shape=connector;curved=1;rounded=0;orthogonalLoop=1;jettySize=auto;html=1;entryX=0;entryY=0.5;entryDx=0;entryDy=0;entryPerimeter=0;strokeColor=default;strokeWidth=4;align=center;verticalAlign=middle;fontFamily=Helvetica;fontSize=15;fontColor=default;labelBackgroundColor=default;endArrow=none;endFill=0;" parent="1" source="-jOVKSL9LvcgH3OS2Tkx-63" target="-jOVKSL9LvcgH3OS2Tkx-75" edge="1">
          <mxGeometry relative="1" as="geometry" />
        </mxCell>
        <mxCell id="-jOVKSL9LvcgH3OS2Tkx-86" value="" style="edgeStyle=orthogonalEdgeStyle;shape=connector;curved=1;rounded=0;orthogonalLoop=1;jettySize=auto;html=1;strokeColor=default;strokeWidth=4;align=center;verticalAlign=middle;fontFamily=Helvetica;fontSize=15;fontColor=default;labelBackgroundColor=default;endArrow=none;endFill=0;" parent="1" source="-jOVKSL9LvcgH3OS2Tkx-79" target="-jOVKSL9LvcgH3OS2Tkx-85" edge="1">
          <mxGeometry relative="1" as="geometry" />
        </mxCell>
        <mxCell id="-jOVKSL9LvcgH3OS2Tkx-79" value="靶道 1 / 瞄准 &lt;b&gt;2&lt;/b&gt;&lt;div&gt;(T1-A2)&lt;/div&gt;" style="verticalLabelPosition=bottom;verticalAlign=top;html=1;strokeWidth=4;shape=mxgraph.flowchart.on-page_reference;plain-purple;gradientColor=none;strokeColor=#000000;fillColor=#D5E8D4;" parent="1" vertex="1">
          <mxGeometry x="469.25" y="726" width="30" height="30" as="geometry" />
        </mxCell>
        <mxCell id="XBWHYermCci3fwddYEe0-2" value="" style="edgeStyle=orthogonalEdgeStyle;shape=connector;curved=1;rounded=0;orthogonalLoop=1;jettySize=auto;html=1;strokeColor=default;strokeWidth=4;align=center;verticalAlign=middle;fontFamily=Helvetica;fontSize=15;fontColor=default;labelBackgroundColor=default;endArrow=none;endFill=0;" parent="1" source="-jOVKSL9LvcgH3OS2Tkx-81" target="XBWHYermCci3fwddYEe0-1" edge="1">
          <mxGeometry relative="1" as="geometry" />
        </mxCell>
        <mxCell id="-jOVKSL9LvcgH3OS2Tkx-81" value="靶道 2 / 瞄准 1" style="verticalLabelPosition=bottom;verticalAlign=top;html=1;strokeWidth=4;shape=mxgraph.flowchart.on-page_reference;plain-blue;gradientColor=none;fillColor=#D5E8D4;strokeColor=#000000;" parent="1" vertex="1">
          <mxGeometry x="359.25" y="820" width="30" height="30" as="geometry" />
        </mxCell>
        <mxCell id="-jOVKSL9LvcgH3OS2Tkx-88" value="" style="edgeStyle=orthogonalEdgeStyle;shape=connector;curved=1;rounded=0;orthogonalLoop=1;jettySize=auto;html=1;strokeColor=default;strokeWidth=4;align=center;verticalAlign=middle;fontFamily=Helvetica;fontSize=15;fontColor=default;labelBackgroundColor=default;endArrow=none;endFill=0;dashed=1;" parent="1" source="-jOVKSL9LvcgH3OS2Tkx-85" target="-jOVKSL9LvcgH3OS2Tkx-87" edge="1">
          <mxGeometry relative="1" as="geometry" />
        </mxCell>
        <mxCell id="-jOVKSL9LvcgH3OS2Tkx-85" value="靶道 1 / 瞄准 &lt;b&gt;3&lt;/b&gt;&lt;div&gt;(T1-A3）&lt;/div&gt;" style="verticalLabelPosition=bottom;verticalAlign=top;html=1;strokeWidth=4;shape=mxgraph.flowchart.on-page_reference;plain-purple;gradientColor=none;strokeColor=#000000;fillColor=#D5E8D4;" parent="1" vertex="1">
          <mxGeometry x="579.25" y="726" width="30" height="30" as="geometry" />
        </mxCell>
        <mxCell id="-jOVKSL9LvcgH3OS2Tkx-87" value="靶道 1 / 瞄准 &lt;b&gt;N&lt;/b&gt;&lt;br&gt;（T1-An）" style="verticalLabelPosition=bottom;verticalAlign=top;html=1;strokeWidth=4;shape=mxgraph.flowchart.on-page_reference;plain-purple;gradientColor=none;strokeColor=#000000;fillColor=#D5E8D4;dashed=1;dashPattern=1 2;" parent="1" vertex="1">
          <mxGeometry x="689.25" y="726" width="30" height="30" as="geometry" />
        </mxCell>
        <mxCell id="-jOVKSL9LvcgH3OS2Tkx-94" value="" style="edgeStyle=orthogonalEdgeStyle;shape=connector;curved=1;rounded=0;orthogonalLoop=1;jettySize=auto;html=1;strokeColor=default;strokeWidth=4;align=center;verticalAlign=middle;fontFamily=Helvetica;fontSize=15;fontColor=default;labelBackgroundColor=default;endArrow=none;endFill=0;" parent="1" source="-jOVKSL9LvcgH3OS2Tkx-89" target="-jOVKSL9LvcgH3OS2Tkx-93" edge="1">
          <mxGeometry relative="1" as="geometry" />
        </mxCell>
        <mxCell id="-jOVKSL9LvcgH3OS2Tkx-89" value="靶道 &lt;b&gt;1.1&lt;/b&gt; / 瞄准 1" style="verticalLabelPosition=bottom;verticalAlign=top;html=1;strokeWidth=4;shape=mxgraph.flowchart.on-page_reference;plain-purple;gradientColor=none;strokeColor=#000000;fillColor=#D5E8D4;" parent="1" vertex="1">
          <mxGeometry x="469.25" y="636" width="30" height="30" as="geometry" />
        </mxCell>
        <mxCell id="-jOVKSL9LvcgH3OS2Tkx-91" style="edgeStyle=orthogonalEdgeStyle;shape=connector;curved=1;rounded=0;orthogonalLoop=1;jettySize=auto;html=1;entryX=0;entryY=0.5;entryDx=0;entryDy=0;entryPerimeter=0;strokeColor=default;strokeWidth=4;align=center;verticalAlign=middle;fontFamily=Helvetica;fontSize=15;fontColor=default;labelBackgroundColor=default;endArrow=none;endFill=0;" parent="1" source="-jOVKSL9LvcgH3OS2Tkx-75" target="-jOVKSL9LvcgH3OS2Tkx-89" edge="1">
          <mxGeometry relative="1" as="geometry" />
        </mxCell>
        <mxCell id="-jOVKSL9LvcgH3OS2Tkx-96" value="" style="edgeStyle=orthogonalEdgeStyle;shape=connector;curved=1;rounded=0;orthogonalLoop=1;jettySize=auto;html=1;strokeColor=default;strokeWidth=4;align=center;verticalAlign=middle;fontFamily=Helvetica;fontSize=15;fontColor=default;labelBackgroundColor=default;endArrow=none;endFill=0;dashed=1;" parent="1" source="-jOVKSL9LvcgH3OS2Tkx-93" target="-jOVKSL9LvcgH3OS2Tkx-95" edge="1">
          <mxGeometry relative="1" as="geometry" />
        </mxCell>
        <mxCell id="-jOVKSL9LvcgH3OS2Tkx-93" value="靶道 1.1 / 瞄准 &lt;b&gt;2&lt;/b&gt;" style="verticalLabelPosition=bottom;verticalAlign=top;html=1;strokeWidth=4;shape=mxgraph.flowchart.on-page_reference;plain-purple;gradientColor=none;strokeColor=#000000;fillColor=#D5E8D4;" parent="1" vertex="1">
          <mxGeometry x="579.25" y="636" width="30" height="30" as="geometry" />
        </mxCell>
        <mxCell id="-jOVKSL9LvcgH3OS2Tkx-95" value="靶道 1.1 / 瞄准 &lt;b&gt;N&lt;/b&gt;" style="verticalLabelPosition=bottom;verticalAlign=top;html=1;strokeWidth=4;shape=mxgraph.flowchart.on-page_reference;plain-purple;gradientColor=none;strokeColor=#000000;fillColor=#D5E8D4;dashed=1;dashPattern=1 2;" parent="1" vertex="1">
          <mxGeometry x="689.25" y="636" width="30" height="30" as="geometry" />
        </mxCell>
        <mxCell id="XBWHYermCci3fwddYEe0-33" value="" style="edgeStyle=orthogonalEdgeStyle;shape=connector;curved=1;rounded=0;orthogonalLoop=1;jettySize=auto;html=1;strokeColor=default;strokeWidth=4;align=center;verticalAlign=middle;fontFamily=Helvetica;fontSize=15;fontColor=default;labelBackgroundColor=default;endArrow=none;endFill=0;dashed=1;" parent="1" source="XBWHYermCci3fwddYEe0-1" target="XBWHYermCci3fwddYEe0-32" edge="1">
          <mxGeometry relative="1" as="geometry" />
        </mxCell>
        <mxCell id="XBWHYermCci3fwddYEe0-1" value="靶道 2 / 瞄准 &lt;b&gt;2&lt;/b&gt;" style="verticalLabelPosition=bottom;verticalAlign=top;html=1;strokeWidth=4;shape=mxgraph.flowchart.on-page_reference;plain-blue;gradientColor=none;fillColor=#D5E8D4;strokeColor=#000000;" parent="1" vertex="1">
          <mxGeometry x="469.25" y="820" width="30" height="30" as="geometry" />
        </mxCell>
        <mxCell id="XBWHYermCci3fwddYEe0-9" value="" style="edgeStyle=orthogonalEdgeStyle;shape=connector;curved=1;rounded=0;orthogonalLoop=1;jettySize=auto;html=1;strokeColor=default;strokeWidth=4;align=center;verticalAlign=middle;fontFamily=Helvetica;fontSize=15;fontColor=default;labelBackgroundColor=default;endArrow=none;endFill=0;" parent="1" source="XBWHYermCci3fwddYEe0-5" target="XBWHYermCci3fwddYEe0-8" edge="1">
          <mxGeometry relative="1" as="geometry" />
        </mxCell>
        <mxCell id="XBWHYermCci3fwddYEe0-5" value="靶道 &lt;b&gt;1.2&lt;/b&gt; / 瞄准 1&lt;div&gt;（T1.2-A1&lt;span style=&quot;background-color: initial;&quot;&gt;）&lt;/span&gt;&lt;/div&gt;" style="verticalLabelPosition=bottom;verticalAlign=top;html=1;strokeWidth=4;shape=mxgraph.flowchart.on-page_reference;plain-purple;gradientColor=none;strokeColor=#000000;fillColor=#D5E8D4;" parent="1" vertex="1">
          <mxGeometry x="469.25" y="548" width="30" height="30" as="geometry" />
        </mxCell>
        <mxCell id="XBWHYermCci3fwddYEe0-6" style="edgeStyle=orthogonalEdgeStyle;shape=connector;curved=1;rounded=0;orthogonalLoop=1;jettySize=auto;html=1;entryX=0;entryY=0.5;entryDx=0;entryDy=0;entryPerimeter=0;strokeColor=default;strokeWidth=4;align=center;verticalAlign=middle;fontFamily=Helvetica;fontSize=15;fontColor=default;labelBackgroundColor=default;endArrow=none;endFill=0;" parent="1" source="-jOVKSL9LvcgH3OS2Tkx-75" target="XBWHYermCci3fwddYEe0-5" edge="1">
          <mxGeometry relative="1" as="geometry">
            <Array as="points">
              <mxPoint x="410" y="741" />
              <mxPoint x="410" y="563" />
            </Array>
          </mxGeometry>
        </mxCell>
        <mxCell id="XBWHYermCci3fwddYEe0-11" value="" style="edgeStyle=orthogonalEdgeStyle;shape=connector;curved=1;rounded=0;orthogonalLoop=1;jettySize=auto;html=1;strokeColor=default;strokeWidth=4;align=center;verticalAlign=middle;fontFamily=Helvetica;fontSize=15;fontColor=default;labelBackgroundColor=default;endArrow=none;endFill=0;dashed=1;" parent="1" source="XBWHYermCci3fwddYEe0-8" target="XBWHYermCci3fwddYEe0-10" edge="1">
          <mxGeometry relative="1" as="geometry" />
        </mxCell>
        <mxCell id="XBWHYermCci3fwddYEe0-8" value="靶道 1.2 / 瞄准 &lt;b&gt;2&lt;/b&gt;&lt;div&gt;&lt;font color=&quot;#00cc00&quot;&gt;&lt;b&gt;（&lt;/b&gt;&lt;span style=&quot;background-color: initial;&quot;&gt;&lt;b&gt;2024.7.27.1-T1.2-A2&lt;/b&gt;&lt;/span&gt;&lt;b style=&quot;background-color: initial;&quot;&gt;）&lt;/b&gt;&lt;/font&gt;&lt;/div&gt;" style="verticalLabelPosition=bottom;verticalAlign=top;html=1;strokeWidth=4;shape=mxgraph.flowchart.on-page_reference;plain-purple;gradientColor=none;strokeColor=#000000;fillColor=#D5E8D4;" parent="1" vertex="1">
          <mxGeometry x="579.25" y="548" width="30" height="30" as="geometry" />
        </mxCell>
        <mxCell id="XBWHYermCci3fwddYEe0-10" value="靶道 1.2 / 瞄准 &lt;b&gt;N&lt;/b&gt;" style="verticalLabelPosition=bottom;verticalAlign=top;html=1;strokeWidth=4;shape=mxgraph.flowchart.on-page_reference;plain-purple;gradientColor=none;strokeColor=#000000;fillColor=#D5E8D4;dashed=1;dashPattern=1 2;" parent="1" vertex="1">
          <mxGeometry x="689.25" y="548" width="30" height="30" as="geometry" />
        </mxCell>
        <mxCell id="XBWHYermCci3fwddYEe0-13" style="edgeStyle=orthogonalEdgeStyle;shape=connector;curved=1;rounded=0;orthogonalLoop=1;jettySize=auto;html=1;entryX=0;entryY=0.5;entryDx=0;entryDy=0;entryPerimeter=0;strokeColor=default;strokeWidth=4;align=center;verticalAlign=middle;fontFamily=Helvetica;fontSize=15;fontColor=default;labelBackgroundColor=default;endArrow=none;endFill=0;" parent="1" source="-jOVKSL9LvcgH3OS2Tkx-63" target="-jOVKSL9LvcgH3OS2Tkx-81" edge="1">
          <mxGeometry relative="1" as="geometry" />
        </mxCell>
        <mxCell id="XBWHYermCci3fwddYEe0-18" value="" style="edgeStyle=orthogonalEdgeStyle;shape=connector;curved=1;rounded=0;orthogonalLoop=1;jettySize=auto;html=1;strokeColor=default;strokeWidth=4;align=center;verticalAlign=middle;fontFamily=Helvetica;fontSize=15;fontColor=default;labelBackgroundColor=default;endArrow=none;endFill=0;dashed=1;" parent="1" source="XBWHYermCci3fwddYEe0-14" target="XBWHYermCci3fwddYEe0-17" edge="1">
          <mxGeometry relative="1" as="geometry" />
        </mxCell>
        <mxCell id="XBWHYermCci3fwddYEe0-14" value="靶道 &lt;b&gt;1.2.1&lt;/b&gt; / 瞄准 1&lt;div&gt;(T1.2.1-A1)&lt;/div&gt;" style="verticalLabelPosition=bottom;verticalAlign=top;html=1;strokeWidth=4;shape=mxgraph.flowchart.on-page_reference;plain-purple;gradientColor=none;strokeColor=#000000;fillColor=#D5E8D4;" parent="1" vertex="1">
          <mxGeometry x="689.25" y="438" width="30" height="30" as="geometry" />
        </mxCell>
        <mxCell id="XBWHYermCci3fwddYEe0-17" value="靶道 1.2.1 / 瞄准 &lt;b&gt;N&lt;/b&gt;&lt;div&gt;（T1.2.1-An）&lt;/div&gt;" style="verticalLabelPosition=bottom;verticalAlign=top;html=1;strokeWidth=4;shape=mxgraph.flowchart.on-page_reference;plain-purple;gradientColor=none;strokeColor=#000000;fillColor=#D5E8D4;dashed=1;dashPattern=1 2;" parent="1" vertex="1">
          <mxGeometry x="799.25" y="438" width="30" height="30" as="geometry" />
        </mxCell>
        <mxCell id="XBWHYermCci3fwddYEe0-20" style="edgeStyle=orthogonalEdgeStyle;shape=connector;curved=1;rounded=0;orthogonalLoop=1;jettySize=auto;html=1;entryX=1;entryY=0.5;entryDx=0;entryDy=0;entryPerimeter=0;strokeColor=default;strokeWidth=4;align=center;verticalAlign=middle;fontFamily=Helvetica;fontSize=15;fontColor=default;labelBackgroundColor=default;endArrow=none;endFill=0;" parent="1" source="XBWHYermCci3fwddYEe0-14" target="XBWHYermCci3fwddYEe0-8" edge="1">
          <mxGeometry relative="1" as="geometry" />
        </mxCell>
        <mxCell id="XBWHYermCci3fwddYEe0-27" value="" style="edgeStyle=orthogonalEdgeStyle;shape=connector;curved=1;rounded=0;orthogonalLoop=1;jettySize=auto;html=1;strokeColor=default;strokeWidth=4;align=center;verticalAlign=middle;fontFamily=Helvetica;fontSize=15;fontColor=default;labelBackgroundColor=default;endArrow=none;endFill=0;" parent="1" source="XBWHYermCci3fwddYEe0-22" target="XBWHYermCci3fwddYEe0-26" edge="1">
          <mxGeometry relative="1" as="geometry" />
        </mxCell>
        <mxCell id="XBWHYermCci3fwddYEe0-22" value="靶道 N / 瞄准 1&lt;br&gt;(Tn-A1)" style="verticalLabelPosition=bottom;verticalAlign=top;html=1;strokeWidth=4;shape=mxgraph.flowchart.on-page_reference;plain-blue;gradientColor=none;fillColor=#D5E8D4;strokeColor=#000000;" parent="1" vertex="1">
          <mxGeometry x="359.25" y="910" width="30" height="30" as="geometry" />
        </mxCell>
        <mxCell id="XBWHYermCci3fwddYEe0-23" style="edgeStyle=orthogonalEdgeStyle;shape=connector;curved=1;rounded=0;orthogonalLoop=1;jettySize=auto;html=1;entryX=0;entryY=0.5;entryDx=0;entryDy=0;entryPerimeter=0;strokeColor=default;strokeWidth=4;align=center;verticalAlign=middle;fontFamily=Helvetica;fontSize=15;fontColor=default;labelBackgroundColor=default;endArrow=none;endFill=0;dashed=1;" parent="1" source="-jOVKSL9LvcgH3OS2Tkx-63" target="XBWHYermCci3fwddYEe0-22" edge="1">
          <mxGeometry relative="1" as="geometry">
            <Array as="points">
              <mxPoint x="300" y="741" />
              <mxPoint x="300" y="925" />
            </Array>
          </mxGeometry>
        </mxCell>
        <mxCell id="XBWHYermCci3fwddYEe0-29" value="" style="edgeStyle=orthogonalEdgeStyle;shape=connector;curved=1;rounded=0;orthogonalLoop=1;jettySize=auto;html=1;strokeColor=default;strokeWidth=4;align=center;verticalAlign=middle;fontFamily=Helvetica;fontSize=15;fontColor=default;labelBackgroundColor=default;endArrow=none;endFill=0;dashed=1;" parent="1" source="XBWHYermCci3fwddYEe0-26" target="XBWHYermCci3fwddYEe0-28" edge="1">
          <mxGeometry relative="1" as="geometry" />
        </mxCell>
        <mxCell id="XBWHYermCci3fwddYEe0-26" value="靶道 N / 瞄准 &lt;b&gt;2&lt;/b&gt;&lt;br&gt;(Tn-A2)" style="verticalLabelPosition=bottom;verticalAlign=top;html=1;strokeWidth=4;shape=mxgraph.flowchart.on-page_reference;plain-blue;gradientColor=none;fillColor=#D5E8D4;strokeColor=#000000;" parent="1" vertex="1">
          <mxGeometry x="469.25" y="910" width="30" height="30" as="geometry" />
        </mxCell>
        <mxCell id="XBWHYermCci3fwddYEe0-28" value="靶道 N / 瞄准 &lt;b&gt;N&lt;/b&gt;&lt;div&gt;(Tn-An)&lt;/div&gt;" style="verticalLabelPosition=bottom;verticalAlign=top;html=1;strokeWidth=4;shape=mxgraph.flowchart.on-page_reference;plain-blue;gradientColor=none;fillColor=#D5E8D4;strokeColor=#000000;dashed=1;dashPattern=1 2;" parent="1" vertex="1">
          <mxGeometry x="579.25" y="910" width="30" height="30" as="geometry" />
        </mxCell>
        <mxCell id="XBWHYermCci3fwddYEe0-32" value="靶道 2 / 瞄准 &lt;b&gt;N&lt;/b&gt;" style="verticalLabelPosition=bottom;verticalAlign=top;html=1;strokeWidth=4;shape=mxgraph.flowchart.on-page_reference;plain-blue;gradientColor=none;fillColor=#D5E8D4;strokeColor=#000000;dashed=1;dashPattern=1 2;" parent="1" vertex="1">
          <mxGeometry x="579.25" y="820" width="30" height="30" as="geometry" />
        </mxCell>
        <mxCell id="XBWHYermCci3fwddYEe0-34" value="靶道 1.2.N / 瞄准 &lt;b&gt;1&lt;/b&gt;&lt;div&gt;(T1.2.n-A1)&lt;/div&gt;" style="verticalLabelPosition=bottom;verticalAlign=top;html=1;strokeWidth=4;shape=mxgraph.flowchart.on-page_reference;plain-purple;gradientColor=none;strokeColor=#000000;fillColor=#D5E8D4;" parent="1" vertex="1">
          <mxGeometry x="689.25" y="330" width="30" height="30" as="geometry" />
        </mxCell>
        <mxCell id="XBWHYermCci3fwddYEe0-35" style="edgeStyle=orthogonalEdgeStyle;shape=connector;curved=1;rounded=0;orthogonalLoop=1;jettySize=auto;html=1;entryX=0;entryY=0.5;entryDx=0;entryDy=0;entryPerimeter=0;dashed=1;strokeColor=default;strokeWidth=4;align=center;verticalAlign=middle;fontFamily=Helvetica;fontSize=15;fontColor=default;labelBackgroundColor=default;endArrow=none;endFill=0;" parent="1" source="XBWHYermCci3fwddYEe0-8" target="XBWHYermCci3fwddYEe0-34" edge="1">
          <mxGeometry relative="1" as="geometry">
            <Array as="points">
              <mxPoint x="640" y="563" />
              <mxPoint x="640" y="345" />
            </Array>
          </mxGeometry>
        </mxCell>
        <mxCell id="XBWHYermCci3fwddYEe0-43" style="edgeStyle=orthogonalEdgeStyle;shape=connector;curved=1;rounded=0;orthogonalLoop=1;jettySize=auto;html=1;strokeColor=default;strokeWidth=4;align=center;verticalAlign=middle;fontFamily=Helvetica;fontSize=15;fontColor=default;labelBackgroundColor=default;endArrow=none;endFill=0;" parent="1" source="XBWHYermCci3fwddYEe0-36" target="XBWHYermCci3fwddYEe0-41" edge="1">
          <mxGeometry relative="1" as="geometry" />
        </mxCell>
        <mxCell id="XBWHYermCci3fwddYEe0-36" value="" style="verticalLabelPosition=bottom;verticalAlign=top;html=1;strokeWidth=4;shape=mxgraph.flowchart.on-page_reference;plain-blue;gradientColor=none;fillColor=#B5E3Fe;strokeColor=#000000;" parent="1" vertex="1">
          <mxGeometry x="249.25" y="1046" width="30" height="30" as="geometry" />
        </mxCell>
        <mxCell id="XBWHYermCci3fwddYEe0-37" value="" style="edgeStyle=orthogonalEdgeStyle;rounded=0;html=1;jettySize=auto;orthogonalLoop=1;strokeWidth=4;endArrow=none;endFill=0;" parent="1" target="XBWHYermCci3fwddYEe0-36" edge="1">
          <mxGeometry x="192.25" y="211" as="geometry">
            <mxPoint x="137" y="1061" as="sourcePoint" />
          </mxGeometry>
        </mxCell>
        <mxCell id="XBWHYermCci3fwddYEe0-44" style="edgeStyle=orthogonalEdgeStyle;shape=connector;curved=1;rounded=0;orthogonalLoop=1;jettySize=auto;html=1;dashed=1;strokeColor=default;strokeWidth=4;align=center;verticalAlign=middle;fontFamily=Helvetica;fontSize=15;fontColor=default;labelBackgroundColor=default;endArrow=none;endFill=0;" parent="1" source="XBWHYermCci3fwddYEe0-41" target="XBWHYermCci3fwddYEe0-42" edge="1">
          <mxGeometry relative="1" as="geometry" />
        </mxCell>
        <mxCell id="XBWHYermCci3fwddYEe0-41" value="靶道 1 / 瞄准 1&lt;div&gt;（&lt;b&gt;T&lt;/b&gt;actic / &lt;b&gt;A&lt;/b&gt;im）&lt;/div&gt;" style="verticalLabelPosition=bottom;verticalAlign=top;html=1;strokeWidth=4;shape=mxgraph.flowchart.on-page_reference;plain-purple;gradientColor=none;strokeColor=#000000;fillColor=#D5E8D4;" parent="1" vertex="1">
          <mxGeometry x="359.25" y="1046" width="30" height="30" as="geometry" />
        </mxCell>
        <mxCell id="XBWHYermCci3fwddYEe0-42" value="靶道 1 / 瞄准 &lt;b&gt;N&lt;/b&gt;" style="verticalLabelPosition=bottom;verticalAlign=top;html=1;strokeWidth=4;shape=mxgraph.flowchart.on-page_reference;plain-blue;gradientColor=none;fillColor=#D5E8D4;strokeColor=#000000;dashed=1;dashPattern=1 2;" parent="1" vertex="1">
          <mxGeometry x="469.25" y="1046" width="30" height="30" as="geometry" />
        </mxCell>
        <mxCell id="XBWHYermCci3fwddYEe0-45" value="靶道 N / 瞄准 1&lt;br&gt;(Tn-A1)" style="verticalLabelPosition=bottom;verticalAlign=top;html=1;strokeWidth=4;shape=mxgraph.flowchart.on-page_reference;plain-blue;gradientColor=none;fillColor=#D5E8D4;strokeColor=#000000;" parent="1" vertex="1">
          <mxGeometry x="359.25" y="1150" width="30" height="30" as="geometry" />
        </mxCell>
        <mxCell id="XBWHYermCci3fwddYEe0-46" value="靶道 N / 瞄准 &lt;b&gt;2&lt;/b&gt;&lt;br&gt;(Tn-A2)" style="verticalLabelPosition=bottom;verticalAlign=top;html=1;strokeWidth=4;shape=mxgraph.flowchart.on-page_reference;plain-blue;gradientColor=none;fillColor=#D5E8D4;strokeColor=#000000;" parent="1" vertex="1">
          <mxGeometry x="469.25" y="1150" width="30" height="30" as="geometry" />
        </mxCell>
        <mxCell id="XBWHYermCci3fwddYEe0-48" style="edgeStyle=orthogonalEdgeStyle;shape=connector;curved=1;rounded=0;orthogonalLoop=1;jettySize=auto;html=1;entryX=0;entryY=0.5;entryDx=0;entryDy=0;entryPerimeter=0;strokeColor=default;strokeWidth=4;align=center;verticalAlign=middle;fontFamily=Helvetica;fontSize=15;fontColor=default;labelBackgroundColor=default;endArrow=none;endFill=0;" parent="1" source="XBWHYermCci3fwddYEe0-36" target="XBWHYermCci3fwddYEe0-45" edge="1">
          <mxGeometry relative="1" as="geometry" />
        </mxCell>
        <mxCell id="XBWHYermCci3fwddYEe0-49" style="edgeStyle=orthogonalEdgeStyle;shape=connector;curved=1;rounded=0;orthogonalLoop=1;jettySize=auto;html=1;entryX=0;entryY=0.5;entryDx=0;entryDy=0;entryPerimeter=0;strokeColor=default;strokeWidth=4;align=center;verticalAlign=middle;fontFamily=Helvetica;fontSize=15;fontColor=default;labelBackgroundColor=default;endArrow=none;endFill=0;" parent="1" source="XBWHYermCci3fwddYEe0-45" target="XBWHYermCci3fwddYEe0-46" edge="1">
          <mxGeometry relative="1" as="geometry" />
        </mxCell>
        <mxCell id="XBWHYermCci3fwddYEe0-50" value="靶道 N / 瞄准 &lt;b&gt;N&lt;/b&gt;&lt;div&gt;(Tn-An)&lt;/div&gt;" style="verticalLabelPosition=bottom;verticalAlign=top;html=1;strokeWidth=4;shape=mxgraph.flowchart.on-page_reference;plain-blue;gradientColor=none;fillColor=#D5E8D4;strokeColor=#000000;dashed=1;dashPattern=1 2;" parent="1" vertex="1">
          <mxGeometry x="579.25" y="1150" width="30" height="30" as="geometry" />
        </mxCell>
        <mxCell id="XBWHYermCci3fwddYEe0-51" style="edgeStyle=orthogonalEdgeStyle;shape=connector;curved=1;rounded=0;orthogonalLoop=1;jettySize=auto;html=1;entryX=0;entryY=0.5;entryDx=0;entryDy=0;entryPerimeter=0;dashed=1;strokeColor=default;strokeWidth=4;align=center;verticalAlign=middle;fontFamily=Helvetica;fontSize=15;fontColor=default;labelBackgroundColor=default;endArrow=none;endFill=0;" parent="1" source="XBWHYermCci3fwddYEe0-46" target="XBWHYermCci3fwddYEe0-50" edge="1">
          <mxGeometry relative="1" as="geometry" />
        </mxCell>
        <mxCell id="XBWHYermCci3fwddYEe0-52" value="靶道 1.2.n / 瞄准 &lt;b&gt;N&lt;/b&gt;&lt;div&gt;（T1.2.n-An）&lt;/div&gt;" style="verticalLabelPosition=bottom;verticalAlign=top;html=1;strokeWidth=4;shape=mxgraph.flowchart.on-page_reference;plain-purple;gradientColor=none;strokeColor=#000000;fillColor=#D5E8D4;dashed=1;dashPattern=1 2;" parent="1" vertex="1">
          <mxGeometry x="797" y="330" width="30" height="30" as="geometry" />
        </mxCell>
        <mxCell id="XBWHYermCci3fwddYEe0-53" style="edgeStyle=orthogonalEdgeStyle;shape=connector;curved=1;rounded=0;orthogonalLoop=1;jettySize=auto;html=1;entryX=0;entryY=0.5;entryDx=0;entryDy=0;entryPerimeter=0;dashed=1;strokeColor=default;strokeWidth=4;align=center;verticalAlign=middle;fontFamily=Helvetica;fontSize=15;fontColor=default;labelBackgroundColor=default;endArrow=none;endFill=0;" parent="1" source="XBWHYermCci3fwddYEe0-34" target="XBWHYermCci3fwddYEe0-52" edge="1">
          <mxGeometry relative="1" as="geometry" />
        </mxCell>
        <mxCell id="B34DjvOtGcqqrq7KXxW8-1" value="靶场 2&lt;div&gt;&lt;span style=&quot;font-weight: normal;&quot;&gt;(2024.7.27.&lt;/span&gt;2&lt;span style=&quot;font-weight: normal;&quot;&gt;)&lt;/span&gt;&lt;/div&gt;" style="text;html=1;strokeColor=none;fillColor=none;align=center;verticalAlign=middle;whiteSpace=wrap;overflow=hidden;fontSize=14;fontStyle=1;fontFamily=Courier New;" parent="1" vertex="1">
          <mxGeometry x="10" y="1040" width="110" height="42" as="geometry" />
        </mxCell>
        <mxCell id="B34DjvOtGcqqrq7KXxW8-2" value="(Range)" style="text;html=1;strokeColor=none;fillColor=none;align=center;verticalAlign=middle;whiteSpace=wrap;overflow=hidden;fontSize=14;fontStyle=0;fontColor=#009900;" parent="1" vertex="1">
          <mxGeometry x="-10" y="1076" width="146.75" height="30" as="geometry" />
        </mxCell>
        <mxCell id="B34DjvOtGcqqrq7KXxW8-19" value="&lt;font style=&quot;font-size: 14px;&quot;&gt;&lt;span style=&quot;text-align: left;&quot;&gt;完整 Prompt Code：&lt;/span&gt;&lt;br style=&quot;text-align: left;&quot;&gt;&lt;/font&gt;&lt;b style=&quot;text-align: left; font-size: 17px;&quot;&gt;&lt;font color=&quot;#00cc00&quot;&gt;&lt;span style=&quot;font-family: &amp;quot;Courier New&amp;quot;; text-align: center; background-color: rgb(251, 251, 251);&quot;&gt;2024.7.27.2&lt;/span&gt;&lt;span style=&quot;font-family: &amp;quot;Courier New&amp;quot;; text-align: center; background-color: rgb(251, 251, 251);&quot;&gt;-Tn-An&lt;/span&gt;&lt;/font&gt;&lt;/b&gt;" style="shape=callout;whiteSpace=wrap;html=1;perimeter=calloutPerimeter;fontFamily=Helvetica;fontSize=15;fontColor=default;labelBackgroundColor=default;position2=0.1;base=20;size=10;position=0.05;textShadow=0;labelBorderColor=none;verticalAlign=middle;strokeColor=#999999;" parent="1" vertex="1">
          <mxGeometry x="570" y="1070" width="210" height="70" as="geometry" />
        </mxCell>
        <mxCell id="B34DjvOtGcqqrq7KXxW8-20" style="edgeStyle=orthogonalEdgeStyle;rounded=0;orthogonalLoop=1;jettySize=auto;html=1;startArrow=none;startFill=0;dashed=1;strokeColor=default;strokeWidth=4;align=center;verticalAlign=middle;fontFamily=Helvetica;fontSize=15;fontColor=default;labelBackgroundColor=default;curved=1;dashPattern=1 4;endArrow=none;endFill=0;" parent="1" edge="1">
          <mxGeometry relative="1" as="geometry">
            <mxPoint x="140" y="1000" as="sourcePoint" />
            <mxPoint x="780" y="1000" as="targetPoint" />
          </mxGeometry>
        </mxCell>
        <mxCell id="B34DjvOtGcqqrq7KXxW8-21" style="edgeStyle=orthogonalEdgeStyle;rounded=0;orthogonalLoop=1;jettySize=auto;html=1;startArrow=none;startFill=0;dashed=1;strokeColor=default;strokeWidth=4;align=center;verticalAlign=middle;fontFamily=Helvetica;fontSize=15;fontColor=default;labelBackgroundColor=default;curved=1;dashPattern=1 4;endArrow=none;endFill=0;" parent="1" edge="1">
          <mxGeometry relative="1" as="geometry">
            <mxPoint x="140" y="1260" as="sourcePoint" />
            <mxPoint x="770" y="1260" as="targetPoint" />
          </mxGeometry>
        </mxCell>
        <mxCell id="B34DjvOtGcqqrq7KXxW8-36" style="edgeStyle=orthogonalEdgeStyle;shape=connector;curved=1;rounded=0;orthogonalLoop=1;jettySize=auto;html=1;strokeColor=default;strokeWidth=4;align=center;verticalAlign=middle;fontFamily=Helvetica;fontSize=15;fontColor=default;labelBackgroundColor=default;endArrow=none;endFill=0;" parent="1" source="B34DjvOtGcqqrq7KXxW8-37" target="B34DjvOtGcqqrq7KXxW8-40" edge="1">
          <mxGeometry relative="1" as="geometry" />
        </mxCell>
        <mxCell id="B34DjvOtGcqqrq7KXxW8-37" value="" style="verticalLabelPosition=bottom;verticalAlign=top;html=1;strokeWidth=4;shape=mxgraph.flowchart.on-page_reference;plain-blue;gradientColor=none;fillColor=#B5E3Fe;strokeColor=#000000;" parent="1" vertex="1">
          <mxGeometry x="250.88" y="1316" width="30" height="30" as="geometry" />
        </mxCell>
        <mxCell id="B34DjvOtGcqqrq7KXxW8-38" value="" style="edgeStyle=orthogonalEdgeStyle;rounded=0;html=1;jettySize=auto;orthogonalLoop=1;strokeWidth=4;endArrow=none;endFill=0;" parent="1" target="B34DjvOtGcqqrq7KXxW8-37" edge="1">
          <mxGeometry x="192.25" y="211" as="geometry">
            <mxPoint x="138.63" y="1331" as="sourcePoint" />
          </mxGeometry>
        </mxCell>
        <mxCell id="B34DjvOtGcqqrq7KXxW8-39" style="edgeStyle=orthogonalEdgeStyle;shape=connector;curved=1;rounded=0;orthogonalLoop=1;jettySize=auto;html=1;dashed=1;strokeColor=default;strokeWidth=4;align=center;verticalAlign=middle;fontFamily=Helvetica;fontSize=15;fontColor=default;labelBackgroundColor=default;endArrow=none;endFill=0;" parent="1" source="B34DjvOtGcqqrq7KXxW8-40" target="B34DjvOtGcqqrq7KXxW8-41" edge="1">
          <mxGeometry relative="1" as="geometry" />
        </mxCell>
        <mxCell id="B34DjvOtGcqqrq7KXxW8-40" value="靶道 1 / 瞄准 1&lt;div&gt;（&lt;b&gt;T&lt;/b&gt;actic / &lt;b&gt;A&lt;/b&gt;im）&lt;/div&gt;" style="verticalLabelPosition=bottom;verticalAlign=top;html=1;strokeWidth=4;shape=mxgraph.flowchart.on-page_reference;plain-purple;gradientColor=none;strokeColor=#000000;fillColor=#D5E8D4;" parent="1" vertex="1">
          <mxGeometry x="360.88" y="1316" width="30" height="30" as="geometry" />
        </mxCell>
        <mxCell id="B34DjvOtGcqqrq7KXxW8-41" value="靶道 1 / 瞄准 &lt;b&gt;N&lt;/b&gt;" style="verticalLabelPosition=bottom;verticalAlign=top;html=1;strokeWidth=4;shape=mxgraph.flowchart.on-page_reference;plain-blue;gradientColor=none;fillColor=#D5E8D4;strokeColor=#000000;dashed=1;dashPattern=1 2;" parent="1" vertex="1">
          <mxGeometry x="470.88" y="1316" width="30" height="30" as="geometry" />
        </mxCell>
        <mxCell id="B34DjvOtGcqqrq7KXxW8-42" value="靶道 N / 瞄准 1&lt;br&gt;(Tn-A1)" style="verticalLabelPosition=bottom;verticalAlign=top;html=1;strokeWidth=4;shape=mxgraph.flowchart.on-page_reference;plain-blue;gradientColor=none;fillColor=#D5E8D4;strokeColor=#000000;" parent="1" vertex="1">
          <mxGeometry x="360.88" y="1420" width="30" height="30" as="geometry" />
        </mxCell>
        <mxCell id="B34DjvOtGcqqrq7KXxW8-43" value="靶道 N / 瞄准 &lt;b&gt;2&lt;/b&gt;&lt;br&gt;(Tn-A2)" style="verticalLabelPosition=bottom;verticalAlign=top;html=1;strokeWidth=4;shape=mxgraph.flowchart.on-page_reference;plain-blue;gradientColor=none;fillColor=#D5E8D4;strokeColor=#000000;" parent="1" vertex="1">
          <mxGeometry x="470.88" y="1420" width="30" height="30" as="geometry" />
        </mxCell>
        <mxCell id="B34DjvOtGcqqrq7KXxW8-44" style="edgeStyle=orthogonalEdgeStyle;shape=connector;curved=1;rounded=0;orthogonalLoop=1;jettySize=auto;html=1;entryX=0;entryY=0.5;entryDx=0;entryDy=0;entryPerimeter=0;strokeColor=default;strokeWidth=4;align=center;verticalAlign=middle;fontFamily=Helvetica;fontSize=15;fontColor=default;labelBackgroundColor=default;endArrow=none;endFill=0;" parent="1" source="B34DjvOtGcqqrq7KXxW8-37" target="B34DjvOtGcqqrq7KXxW8-42" edge="1">
          <mxGeometry relative="1" as="geometry" />
        </mxCell>
        <mxCell id="B34DjvOtGcqqrq7KXxW8-45" style="edgeStyle=orthogonalEdgeStyle;shape=connector;curved=1;rounded=0;orthogonalLoop=1;jettySize=auto;html=1;entryX=0;entryY=0.5;entryDx=0;entryDy=0;entryPerimeter=0;strokeColor=default;strokeWidth=4;align=center;verticalAlign=middle;fontFamily=Helvetica;fontSize=15;fontColor=default;labelBackgroundColor=default;endArrow=none;endFill=0;" parent="1" source="B34DjvOtGcqqrq7KXxW8-42" target="B34DjvOtGcqqrq7KXxW8-43" edge="1">
          <mxGeometry relative="1" as="geometry" />
        </mxCell>
        <mxCell id="B34DjvOtGcqqrq7KXxW8-46" value="靶道 N / 瞄准 &lt;b&gt;N&lt;/b&gt;&lt;div&gt;(Tn-An)&lt;/div&gt;" style="verticalLabelPosition=bottom;verticalAlign=top;html=1;strokeWidth=4;shape=mxgraph.flowchart.on-page_reference;plain-blue;gradientColor=none;fillColor=#D5E8D4;strokeColor=#000000;dashed=1;dashPattern=1 2;" parent="1" vertex="1">
          <mxGeometry x="580.88" y="1420" width="30" height="30" as="geometry" />
        </mxCell>
        <mxCell id="B34DjvOtGcqqrq7KXxW8-47" style="edgeStyle=orthogonalEdgeStyle;shape=connector;curved=1;rounded=0;orthogonalLoop=1;jettySize=auto;html=1;entryX=0;entryY=0.5;entryDx=0;entryDy=0;entryPerimeter=0;dashed=1;strokeColor=default;strokeWidth=4;align=center;verticalAlign=middle;fontFamily=Helvetica;fontSize=15;fontColor=default;labelBackgroundColor=default;endArrow=none;endFill=0;" parent="1" source="B34DjvOtGcqqrq7KXxW8-43" target="B34DjvOtGcqqrq7KXxW8-46" edge="1">
          <mxGeometry relative="1" as="geometry" />
        </mxCell>
        <mxCell id="B34DjvOtGcqqrq7KXxW8-48" value="靶场 n&lt;div&gt;&lt;span style=&quot;font-weight: normal;&quot;&gt;(yyyy.M.d.&lt;/span&gt;n&lt;span style=&quot;font-weight: normal;&quot;&gt;)&lt;/span&gt;&lt;/div&gt;" style="text;html=1;strokeColor=none;fillColor=none;align=center;verticalAlign=middle;whiteSpace=wrap;overflow=hidden;fontSize=14;fontStyle=1;fontFamily=Courier New;" parent="1" vertex="1">
          <mxGeometry x="11.629999999999999" y="1310" width="110" height="42" as="geometry" />
        </mxCell>
        <mxCell id="B34DjvOtGcqqrq7KXxW8-49" value="(Range)" style="text;html=1;strokeColor=none;fillColor=none;align=center;verticalAlign=middle;whiteSpace=wrap;overflow=hidden;fontSize=14;fontStyle=0;fontColor=#009900;" parent="1" vertex="1">
          <mxGeometry x="-8.370000000000001" y="1346" width="146.75" height="30" as="geometry" />
        </mxCell>
        <mxCell id="B34DjvOtGcqqrq7KXxW8-50" value="&lt;font style=&quot;font-size: 14px;&quot;&gt;&lt;span style=&quot;text-align: left;&quot;&gt;完整 Prompt Code：&lt;/span&gt;&lt;br style=&quot;text-align: left;&quot;&gt;&lt;/font&gt;&lt;b style=&quot;text-align: left; font-size: 17px;&quot;&gt;&lt;font color=&quot;#00cc00&quot;&gt;&lt;span style=&quot;font-family: &amp;quot;Courier New&amp;quot;; text-align: center; background-color: rgb(251, 251, 251);&quot;&gt;yyyy.M.d.n&lt;/span&gt;&lt;span style=&quot;font-family: &amp;quot;Courier New&amp;quot;; text-align: center; background-color: rgb(251, 251, 251);&quot;&gt;-Tn-An&lt;/span&gt;&lt;/font&gt;&lt;/b&gt;" style="shape=callout;whiteSpace=wrap;html=1;perimeter=calloutPerimeter;fontFamily=Helvetica;fontSize=15;fontColor=default;labelBackgroundColor=default;position2=0.1;base=20;size=10;position=0.05;textShadow=0;labelBorderColor=none;verticalAlign=middle;strokeColor=#999999;" parent="1" vertex="1">
          <mxGeometry x="571.63" y="1340" width="210" height="70" as="geometry" />
        </mxCell>
        <mxCell id="B34DjvOtGcqqrq7KXxW8-66" value="&lt;font color=&quot;#00cc00&quot; style=&quot;font-size: 13px;&quot;&gt;2024.7.27.1&lt;/font&gt;&lt;div style=&quot;font-size: 14px;&quot;&gt;靶场名称，以靶场创建日期为前缀，最后 &lt;font color=&quot;#00cc00&quot;&gt;&lt;b&gt;.1&lt;/b&gt;&lt;/font&gt; 表示当天创建的第&amp;nbsp; 1 个靶场。&lt;/div&gt;" style="html=1;shadow=0;dashed=0;shape=mxgraph.bootstrap.popover;fillColor=#ffffff;strokeColor=#CCCCCC;dx=94.48;dy=5.49;rSize=5;whiteSpace=wrap;verticalAlign=top;spacing=10;fontSize=13;spacingLeft=0;align=left;spacingTop=-5;fontFamily=Helvetica;fontColor=default;labelBackgroundColor=default;" parent="1" vertex="1">
          <mxGeometry x="230" y="350" width="145" height="110" as="geometry" />
        </mxCell>
        <mxCell id="B34DjvOtGcqqrq7KXxW8-77" value="&lt;font color=&quot;#00cc00&quot; style=&quot;font-size: 14px;&quot;&gt;T1.2&lt;/font&gt;&lt;div style=&quot;font-size: 14px;&quot;&gt;当前靶道的编号，按照层级表示。&lt;/div&gt;" style="html=1;shadow=0;dashed=0;shape=mxgraph.bootstrap.popover;fillColor=#ffffff;strokeColor=#CCCCCC;dx=44.04;dy=5.87;rSize=5;whiteSpace=wrap;verticalAlign=top;spacing=10;fontSize=13;spacingLeft=0;align=left;spacingTop=-5;fontFamily=Helvetica;fontColor=default;labelBackgroundColor=default;" parent="1" vertex="1">
          <mxGeometry x="381.88" y="350" width="80" height="110" as="geometry" />
        </mxCell>
        <mxCell id="B34DjvOtGcqqrq7KXxW8-78" value="&lt;font color=&quot;#00cc00&quot; style=&quot;font-size: 14px;&quot;&gt;A2&lt;/font&gt;&lt;br style=&quot;font-size: 13px;&quot;&gt;&lt;div style=&quot;font-size: 13px;&quot;&gt;当前靶道下第 2 次瞄准，始终为整数。&lt;/div&gt;" style="html=1;shadow=0;dashed=0;shape=mxgraph.bootstrap.popover;fillColor=#ffffff;strokeColor=#CCCCCC;dx=12.58;dy=6.94;rSize=5;whiteSpace=wrap;verticalAlign=top;spacing=10;fontSize=13;spacingLeft=0;align=left;spacingTop=-5;fontFamily=Helvetica;fontColor=default;labelBackgroundColor=default;" parent="1" vertex="1">
          <mxGeometry x="468.5" y="350" width="91.5" height="110" as="geometry" />
        </mxCell>
        <mxCell id="B34DjvOtGcqqrq7KXxW8-84" value="&lt;font style=&quot;font-size: 15px;&quot;&gt;&amp;nbsp;Prompt Code&amp;nbsp;&lt;/font&gt;" style="shape=partialRectangle;whiteSpace=wrap;html=1;bottom=1;right=1;left=1;top=0;fillColor=none;routingCenterX=-0.5;fontFamily=Helvetica;fontSize=13;fontColor=default;labelBackgroundColor=default;spacingTop=40;" parent="1" vertex="1">
          <mxGeometry x="255.13" y="460" width="249.87" height="45" as="geometry" />
        </mxCell>
        <mxCell id="B34DjvOtGcqqrq7KXxW8-72" value="&lt;font color=&quot;#00cc00&quot; style=&quot;font-size: 25px;&quot;&gt;2024.7.27.1-T1.2-A2&lt;/font&gt;" style="text;html=1;align=center;verticalAlign=middle;resizable=0;points=[];autosize=1;strokeColor=none;fillColor=none;fontFamily=Helvetica;fontSize=25;fontColor=default;labelBackgroundColor=default;" parent="1" vertex="1">
          <mxGeometry x="254.51" y="460" width="250" height="40" as="geometry" />
        </mxCell>
        <mxCell id="B34DjvOtGcqqrq7KXxW8-86" value="" style="endArrow=none;html=1;rounded=0;strokeColor=default;strokeWidth=1;align=center;verticalAlign=middle;fontFamily=Helvetica;fontSize=15;fontColor=default;labelBackgroundColor=default;exitX=0.145;exitY=0.145;exitDx=0;exitDy=0;exitPerimeter=0;entryX=1;entryY=1;entryDx=0;entryDy=0;curved=0;" parent="1" source="XBWHYermCci3fwddYEe0-8" target="B34DjvOtGcqqrq7KXxW8-84" edge="1">
          <mxGeometry width="50" height="50" relative="1" as="geometry">
            <mxPoint x="210" y="470" as="sourcePoint" />
            <mxPoint x="260" y="420" as="targetPoint" />
          </mxGeometry>
        </mxCell>
        <mxCell id="B34DjvOtGcqqrq7KXxW8-87" value="&lt;font style=&quot;font-size: 20px;&quot;&gt;PromptRange&lt;/font&gt;" style="shape=curlyBracket;whiteSpace=wrap;html=1;rounded=1;labelPosition=left;verticalLabelPosition=middle;align=right;verticalAlign=middle;fontFamily=Helvetica;fontSize=15;fontColor=default;labelBackgroundColor=default;strokeWidth=3;" parent="1" vertex="1">
          <mxGeometry x="-30" y="730" width="30" height="600" as="geometry" />
        </mxCell>
      </root>
    </mxGraphModel>
  </diagram>
  <diagram name="PromptRange 的副本" id="BqEnXvLsXjE1awDs19nu">
    <mxGraphModel dx="1954" dy="823" grid="1" gridSize="10" guides="1" tooltips="1" connect="1" arrows="1" fold="1" page="1" pageScale="1" pageWidth="827" pageHeight="1169" math="0" shadow="0">
      <root>
        <mxCell id="Hg8I6pQUqvishqlQu0gu-0" />
        <mxCell id="Hg8I6pQUqvishqlQu0gu-1" parent="Hg8I6pQUqvishqlQu0gu-0" />
        <mxCell id="Hg8I6pQUqvishqlQu0gu-2" value="" style="verticalLabelPosition=bottom;verticalAlign=top;html=1;strokeWidth=4;shape=mxgraph.flowchart.on-page_reference;plain-blue;gradientColor=none;fillColor=#B5E3Fe;strokeColor=#000000;" parent="Hg8I6pQUqvishqlQu0gu-1" vertex="1">
          <mxGeometry x="249.25" y="726" width="30" height="30" as="geometry" />
        </mxCell>
        <mxCell id="Hg8I6pQUqvishqlQu0gu-3" value="" style="edgeStyle=orthogonalEdgeStyle;rounded=0;html=1;jettySize=auto;orthogonalLoop=1;strokeWidth=4;endArrow=none;endFill=0;" parent="Hg8I6pQUqvishqlQu0gu-1" target="Hg8I6pQUqvishqlQu0gu-2" edge="1">
          <mxGeometry x="192.25" y="211" as="geometry">
            <mxPoint x="137" y="741" as="sourcePoint" />
          </mxGeometry>
        </mxCell>
        <mxCell id="Hg8I6pQUqvishqlQu0gu-4" value="靶场 1&lt;div&gt;&lt;span style=&quot;font-weight: normal;&quot;&gt;(2024.7.27.&lt;/span&gt;1&lt;span style=&quot;font-weight: normal;&quot;&gt;)&lt;/span&gt;&lt;/div&gt;" style="text;html=1;strokeColor=none;fillColor=none;align=center;verticalAlign=middle;whiteSpace=wrap;overflow=hidden;fontSize=14;fontStyle=1;fontFamily=Courier New;" parent="Hg8I6pQUqvishqlQu0gu-1" vertex="1">
          <mxGeometry x="11.63" y="720" width="110" height="42" as="geometry" />
        </mxCell>
        <mxCell id="Hg8I6pQUqvishqlQu0gu-5" value="(Range)" style="text;html=1;strokeColor=none;fillColor=none;align=center;verticalAlign=middle;whiteSpace=wrap;overflow=hidden;fontSize=14;fontStyle=0;fontColor=#009900;" parent="Hg8I6pQUqvishqlQu0gu-1" vertex="1">
          <mxGeometry x="-8.37" y="756" width="146.75" height="30" as="geometry" />
        </mxCell>
        <mxCell id="Hg8I6pQUqvishqlQu0gu-6" value="" style="edgeStyle=orthogonalEdgeStyle;shape=connector;curved=1;rounded=0;orthogonalLoop=1;jettySize=auto;html=1;strokeColor=default;strokeWidth=4;align=center;verticalAlign=middle;fontFamily=Helvetica;fontSize=15;fontColor=default;labelBackgroundColor=default;endArrow=none;endFill=0;" parent="Hg8I6pQUqvishqlQu0gu-1" source="Hg8I6pQUqvishqlQu0gu-7" target="Hg8I6pQUqvishqlQu0gu-10" edge="1">
          <mxGeometry relative="1" as="geometry" />
        </mxCell>
        <mxCell id="Hg8I6pQUqvishqlQu0gu-7" value="靶道 1 / 瞄准 1&lt;div&gt;（&lt;b&gt;T&lt;/b&gt;actic / &lt;b&gt;A&lt;/b&gt;im）&lt;/div&gt;" style="verticalLabelPosition=bottom;verticalAlign=top;html=1;strokeWidth=4;shape=mxgraph.flowchart.on-page_reference;plain-purple;gradientColor=none;strokeColor=#000000;fillColor=#D5E8D4;" parent="Hg8I6pQUqvishqlQu0gu-1" vertex="1">
          <mxGeometry x="359.25" y="726" width="30" height="30" as="geometry" />
        </mxCell>
        <mxCell id="Hg8I6pQUqvishqlQu0gu-8" style="edgeStyle=orthogonalEdgeStyle;shape=connector;curved=1;rounded=0;orthogonalLoop=1;jettySize=auto;html=1;entryX=0;entryY=0.5;entryDx=0;entryDy=0;entryPerimeter=0;strokeColor=default;strokeWidth=4;align=center;verticalAlign=middle;fontFamily=Helvetica;fontSize=15;fontColor=default;labelBackgroundColor=default;endArrow=none;endFill=0;" parent="Hg8I6pQUqvishqlQu0gu-1" source="Hg8I6pQUqvishqlQu0gu-2" target="Hg8I6pQUqvishqlQu0gu-7" edge="1">
          <mxGeometry relative="1" as="geometry" />
        </mxCell>
        <mxCell id="Hg8I6pQUqvishqlQu0gu-9" value="" style="edgeStyle=orthogonalEdgeStyle;shape=connector;curved=1;rounded=0;orthogonalLoop=1;jettySize=auto;html=1;strokeColor=default;strokeWidth=4;align=center;verticalAlign=middle;fontFamily=Helvetica;fontSize=15;fontColor=default;labelBackgroundColor=default;endArrow=none;endFill=0;" parent="Hg8I6pQUqvishqlQu0gu-1" source="Hg8I6pQUqvishqlQu0gu-10" target="Hg8I6pQUqvishqlQu0gu-14" edge="1">
          <mxGeometry relative="1" as="geometry" />
        </mxCell>
        <mxCell id="Hg8I6pQUqvishqlQu0gu-10" value="靶道 1 / 瞄准 &lt;b&gt;2&lt;/b&gt;&lt;div&gt;(T1-A2)&lt;/div&gt;" style="verticalLabelPosition=bottom;verticalAlign=top;html=1;strokeWidth=4;shape=mxgraph.flowchart.on-page_reference;plain-purple;gradientColor=none;strokeColor=#000000;fillColor=#D5E8D4;" parent="Hg8I6pQUqvishqlQu0gu-1" vertex="1">
          <mxGeometry x="469.25" y="726" width="30" height="30" as="geometry" />
        </mxCell>
        <mxCell id="Hg8I6pQUqvishqlQu0gu-11" value="" style="edgeStyle=orthogonalEdgeStyle;shape=connector;curved=1;rounded=0;orthogonalLoop=1;jettySize=auto;html=1;strokeColor=default;strokeWidth=4;align=center;verticalAlign=middle;fontFamily=Helvetica;fontSize=15;fontColor=default;labelBackgroundColor=default;endArrow=none;endFill=0;" parent="Hg8I6pQUqvishqlQu0gu-1" source="Hg8I6pQUqvishqlQu0gu-12" target="Hg8I6pQUqvishqlQu0gu-23" edge="1">
          <mxGeometry relative="1" as="geometry" />
        </mxCell>
        <mxCell id="Hg8I6pQUqvishqlQu0gu-12" value="靶道 2 / 瞄准 1" style="verticalLabelPosition=bottom;verticalAlign=top;html=1;strokeWidth=4;shape=mxgraph.flowchart.on-page_reference;plain-blue;gradientColor=none;fillColor=#D5E8D4;strokeColor=#000000;" parent="Hg8I6pQUqvishqlQu0gu-1" vertex="1">
          <mxGeometry x="359.25" y="820" width="30" height="30" as="geometry" />
        </mxCell>
        <mxCell id="Hg8I6pQUqvishqlQu0gu-13" value="" style="edgeStyle=orthogonalEdgeStyle;shape=connector;curved=1;rounded=0;orthogonalLoop=1;jettySize=auto;html=1;strokeColor=default;strokeWidth=4;align=center;verticalAlign=middle;fontFamily=Helvetica;fontSize=15;fontColor=default;labelBackgroundColor=default;endArrow=none;endFill=0;dashed=1;" parent="Hg8I6pQUqvishqlQu0gu-1" source="Hg8I6pQUqvishqlQu0gu-14" target="Hg8I6pQUqvishqlQu0gu-15" edge="1">
          <mxGeometry relative="1" as="geometry" />
        </mxCell>
        <mxCell id="Hg8I6pQUqvishqlQu0gu-14" value="靶道 1 / 瞄准 &lt;b&gt;3&lt;/b&gt;&lt;div&gt;(T1-A3）&lt;/div&gt;" style="verticalLabelPosition=bottom;verticalAlign=top;html=1;strokeWidth=4;shape=mxgraph.flowchart.on-page_reference;plain-purple;gradientColor=none;strokeColor=#000000;fillColor=#D5E8D4;" parent="Hg8I6pQUqvishqlQu0gu-1" vertex="1">
          <mxGeometry x="579.25" y="726" width="30" height="30" as="geometry" />
        </mxCell>
        <mxCell id="Hg8I6pQUqvishqlQu0gu-15" value="靶道 1 / 瞄准 &lt;b&gt;N&lt;/b&gt;&lt;br&gt;（T1-An）" style="verticalLabelPosition=bottom;verticalAlign=top;html=1;strokeWidth=4;shape=mxgraph.flowchart.on-page_reference;plain-purple;gradientColor=none;strokeColor=#000000;fillColor=#D5E8D4;dashed=1;dashPattern=1 2;" parent="Hg8I6pQUqvishqlQu0gu-1" vertex="1">
          <mxGeometry x="689.25" y="726" width="30" height="30" as="geometry" />
        </mxCell>
        <mxCell id="Hg8I6pQUqvishqlQu0gu-16" value="" style="edgeStyle=orthogonalEdgeStyle;shape=connector;curved=1;rounded=0;orthogonalLoop=1;jettySize=auto;html=1;strokeColor=default;strokeWidth=4;align=center;verticalAlign=middle;fontFamily=Helvetica;fontSize=15;fontColor=default;labelBackgroundColor=default;endArrow=none;endFill=0;" parent="Hg8I6pQUqvishqlQu0gu-1" source="Hg8I6pQUqvishqlQu0gu-17" target="Hg8I6pQUqvishqlQu0gu-20" edge="1">
          <mxGeometry relative="1" as="geometry" />
        </mxCell>
        <mxCell id="Hg8I6pQUqvishqlQu0gu-17" value="靶道 &lt;b&gt;1.1&lt;/b&gt; / 瞄准 1" style="verticalLabelPosition=bottom;verticalAlign=top;html=1;strokeWidth=4;shape=mxgraph.flowchart.on-page_reference;plain-purple;gradientColor=none;strokeColor=#000000;fillColor=#D5E8D4;" parent="Hg8I6pQUqvishqlQu0gu-1" vertex="1">
          <mxGeometry x="469.25" y="636" width="30" height="30" as="geometry" />
        </mxCell>
        <mxCell id="Hg8I6pQUqvishqlQu0gu-18" style="edgeStyle=orthogonalEdgeStyle;shape=connector;curved=1;rounded=0;orthogonalLoop=1;jettySize=auto;html=1;entryX=0;entryY=0.5;entryDx=0;entryDy=0;entryPerimeter=0;strokeColor=default;strokeWidth=4;align=center;verticalAlign=middle;fontFamily=Helvetica;fontSize=15;fontColor=default;labelBackgroundColor=default;endArrow=none;endFill=0;" parent="Hg8I6pQUqvishqlQu0gu-1" source="Hg8I6pQUqvishqlQu0gu-7" target="Hg8I6pQUqvishqlQu0gu-17" edge="1">
          <mxGeometry relative="1" as="geometry" />
        </mxCell>
        <mxCell id="Hg8I6pQUqvishqlQu0gu-19" value="" style="edgeStyle=orthogonalEdgeStyle;shape=connector;curved=1;rounded=0;orthogonalLoop=1;jettySize=auto;html=1;strokeColor=default;strokeWidth=4;align=center;verticalAlign=middle;fontFamily=Helvetica;fontSize=15;fontColor=default;labelBackgroundColor=default;endArrow=none;endFill=0;dashed=1;" parent="Hg8I6pQUqvishqlQu0gu-1" source="Hg8I6pQUqvishqlQu0gu-20" target="Hg8I6pQUqvishqlQu0gu-21" edge="1">
          <mxGeometry relative="1" as="geometry" />
        </mxCell>
        <mxCell id="Hg8I6pQUqvishqlQu0gu-20" value="靶道 1.1 / 瞄准 &lt;b&gt;2&lt;/b&gt;" style="verticalLabelPosition=bottom;verticalAlign=top;html=1;strokeWidth=4;shape=mxgraph.flowchart.on-page_reference;plain-purple;gradientColor=none;strokeColor=#000000;fillColor=#D5E8D4;" parent="Hg8I6pQUqvishqlQu0gu-1" vertex="1">
          <mxGeometry x="579.25" y="636" width="30" height="30" as="geometry" />
        </mxCell>
        <mxCell id="Hg8I6pQUqvishqlQu0gu-21" value="靶道 1.1 / 瞄准 &lt;b&gt;N&lt;/b&gt;" style="verticalLabelPosition=bottom;verticalAlign=top;html=1;strokeWidth=4;shape=mxgraph.flowchart.on-page_reference;plain-purple;gradientColor=none;strokeColor=#000000;fillColor=#D5E8D4;dashed=1;dashPattern=1 2;" parent="Hg8I6pQUqvishqlQu0gu-1" vertex="1">
          <mxGeometry x="689.25" y="636" width="30" height="30" as="geometry" />
        </mxCell>
        <mxCell id="Hg8I6pQUqvishqlQu0gu-22" value="" style="edgeStyle=orthogonalEdgeStyle;shape=connector;curved=1;rounded=0;orthogonalLoop=1;jettySize=auto;html=1;strokeColor=default;strokeWidth=4;align=center;verticalAlign=middle;fontFamily=Helvetica;fontSize=15;fontColor=default;labelBackgroundColor=default;endArrow=none;endFill=0;dashed=1;" parent="Hg8I6pQUqvishqlQu0gu-1" source="Hg8I6pQUqvishqlQu0gu-23" target="Hg8I6pQUqvishqlQu0gu-41" edge="1">
          <mxGeometry relative="1" as="geometry" />
        </mxCell>
        <mxCell id="Hg8I6pQUqvishqlQu0gu-23" value="靶道 2 / 瞄准 &lt;b&gt;2&lt;/b&gt;" style="verticalLabelPosition=bottom;verticalAlign=top;html=1;strokeWidth=4;shape=mxgraph.flowchart.on-page_reference;plain-blue;gradientColor=none;fillColor=#D5E8D4;strokeColor=#000000;" parent="Hg8I6pQUqvishqlQu0gu-1" vertex="1">
          <mxGeometry x="469.25" y="820" width="30" height="30" as="geometry" />
        </mxCell>
        <mxCell id="Hg8I6pQUqvishqlQu0gu-30" style="edgeStyle=orthogonalEdgeStyle;shape=connector;curved=1;rounded=0;orthogonalLoop=1;jettySize=auto;html=1;entryX=0;entryY=0.5;entryDx=0;entryDy=0;entryPerimeter=0;strokeColor=default;strokeWidth=4;align=center;verticalAlign=middle;fontFamily=Helvetica;fontSize=15;fontColor=default;labelBackgroundColor=default;endArrow=none;endFill=0;" parent="Hg8I6pQUqvishqlQu0gu-1" source="Hg8I6pQUqvishqlQu0gu-2" target="Hg8I6pQUqvishqlQu0gu-12" edge="1">
          <mxGeometry relative="1" as="geometry" />
        </mxCell>
        <mxCell id="Hg8I6pQUqvishqlQu0gu-35" value="" style="edgeStyle=orthogonalEdgeStyle;shape=connector;curved=1;rounded=0;orthogonalLoop=1;jettySize=auto;html=1;strokeColor=default;strokeWidth=4;align=center;verticalAlign=middle;fontFamily=Helvetica;fontSize=15;fontColor=default;labelBackgroundColor=default;endArrow=none;endFill=0;" parent="Hg8I6pQUqvishqlQu0gu-1" source="Hg8I6pQUqvishqlQu0gu-36" target="Hg8I6pQUqvishqlQu0gu-39" edge="1">
          <mxGeometry relative="1" as="geometry" />
        </mxCell>
        <mxCell id="Hg8I6pQUqvishqlQu0gu-36" value="靶道 N / 瞄准 1&lt;br&gt;(Tn-A1)" style="verticalLabelPosition=bottom;verticalAlign=top;html=1;strokeWidth=4;shape=mxgraph.flowchart.on-page_reference;plain-blue;gradientColor=none;fillColor=#D5E8D4;strokeColor=#000000;" parent="Hg8I6pQUqvishqlQu0gu-1" vertex="1">
          <mxGeometry x="359.25" y="910" width="30" height="30" as="geometry" />
        </mxCell>
        <mxCell id="Hg8I6pQUqvishqlQu0gu-37" style="edgeStyle=orthogonalEdgeStyle;shape=connector;curved=1;rounded=0;orthogonalLoop=1;jettySize=auto;html=1;entryX=0;entryY=0.5;entryDx=0;entryDy=0;entryPerimeter=0;strokeColor=default;strokeWidth=4;align=center;verticalAlign=middle;fontFamily=Helvetica;fontSize=15;fontColor=default;labelBackgroundColor=default;endArrow=none;endFill=0;dashed=1;" parent="Hg8I6pQUqvishqlQu0gu-1" source="Hg8I6pQUqvishqlQu0gu-2" target="Hg8I6pQUqvishqlQu0gu-36" edge="1">
          <mxGeometry relative="1" as="geometry">
            <Array as="points">
              <mxPoint x="300" y="741" />
              <mxPoint x="300" y="925" />
            </Array>
          </mxGeometry>
        </mxCell>
        <mxCell id="Hg8I6pQUqvishqlQu0gu-38" value="" style="edgeStyle=orthogonalEdgeStyle;shape=connector;curved=1;rounded=0;orthogonalLoop=1;jettySize=auto;html=1;strokeColor=default;strokeWidth=4;align=center;verticalAlign=middle;fontFamily=Helvetica;fontSize=15;fontColor=default;labelBackgroundColor=default;endArrow=none;endFill=0;dashed=1;" parent="Hg8I6pQUqvishqlQu0gu-1" source="Hg8I6pQUqvishqlQu0gu-39" target="Hg8I6pQUqvishqlQu0gu-40" edge="1">
          <mxGeometry relative="1" as="geometry" />
        </mxCell>
        <mxCell id="Hg8I6pQUqvishqlQu0gu-39" value="靶道 N / 瞄准 &lt;b&gt;2&lt;/b&gt;&lt;br&gt;(Tn-A2)" style="verticalLabelPosition=bottom;verticalAlign=top;html=1;strokeWidth=4;shape=mxgraph.flowchart.on-page_reference;plain-blue;gradientColor=none;fillColor=#D5E8D4;strokeColor=#000000;" parent="Hg8I6pQUqvishqlQu0gu-1" vertex="1">
          <mxGeometry x="469.25" y="910" width="30" height="30" as="geometry" />
        </mxCell>
        <mxCell id="Hg8I6pQUqvishqlQu0gu-40" value="靶道 N / 瞄准 &lt;b&gt;N&lt;/b&gt;&lt;div&gt;(Tn-An)&lt;/div&gt;" style="verticalLabelPosition=bottom;verticalAlign=top;html=1;strokeWidth=4;shape=mxgraph.flowchart.on-page_reference;plain-blue;gradientColor=none;fillColor=#D5E8D4;strokeColor=#000000;dashed=1;dashPattern=1 2;" parent="Hg8I6pQUqvishqlQu0gu-1" vertex="1">
          <mxGeometry x="579.25" y="910" width="30" height="30" as="geometry" />
        </mxCell>
        <mxCell id="Hg8I6pQUqvishqlQu0gu-41" value="靶道 2 / 瞄准 &lt;b&gt;N&lt;/b&gt;" style="verticalLabelPosition=bottom;verticalAlign=top;html=1;strokeWidth=4;shape=mxgraph.flowchart.on-page_reference;plain-blue;gradientColor=none;fillColor=#D5E8D4;strokeColor=#000000;dashed=1;dashPattern=1 2;" parent="Hg8I6pQUqvishqlQu0gu-1" vertex="1">
          <mxGeometry x="579.25" y="820" width="30" height="30" as="geometry" />
        </mxCell>
        <mxCell id="Hg8I6pQUqvishqlQu0gu-44" style="edgeStyle=orthogonalEdgeStyle;shape=connector;curved=1;rounded=0;orthogonalLoop=1;jettySize=auto;html=1;strokeColor=default;strokeWidth=4;align=center;verticalAlign=middle;fontFamily=Helvetica;fontSize=15;fontColor=default;labelBackgroundColor=default;endArrow=none;endFill=0;" parent="Hg8I6pQUqvishqlQu0gu-1" source="Hg8I6pQUqvishqlQu0gu-45" target="Hg8I6pQUqvishqlQu0gu-48" edge="1">
          <mxGeometry relative="1" as="geometry" />
        </mxCell>
        <mxCell id="Hg8I6pQUqvishqlQu0gu-45" value="" style="verticalLabelPosition=bottom;verticalAlign=top;html=1;strokeWidth=4;shape=mxgraph.flowchart.on-page_reference;plain-blue;gradientColor=none;fillColor=#B5E3Fe;strokeColor=#000000;" parent="Hg8I6pQUqvishqlQu0gu-1" vertex="1">
          <mxGeometry x="249.25" y="1046" width="30" height="30" as="geometry" />
        </mxCell>
        <mxCell id="Hg8I6pQUqvishqlQu0gu-46" value="" style="edgeStyle=orthogonalEdgeStyle;rounded=0;html=1;jettySize=auto;orthogonalLoop=1;strokeWidth=4;endArrow=none;endFill=0;" parent="Hg8I6pQUqvishqlQu0gu-1" target="Hg8I6pQUqvishqlQu0gu-45" edge="1">
          <mxGeometry x="192.25" y="211" as="geometry">
            <mxPoint x="137" y="1061" as="sourcePoint" />
          </mxGeometry>
        </mxCell>
        <mxCell id="Hg8I6pQUqvishqlQu0gu-47" style="edgeStyle=orthogonalEdgeStyle;shape=connector;curved=1;rounded=0;orthogonalLoop=1;jettySize=auto;html=1;dashed=1;strokeColor=default;strokeWidth=4;align=center;verticalAlign=middle;fontFamily=Helvetica;fontSize=15;fontColor=default;labelBackgroundColor=default;endArrow=none;endFill=0;" parent="Hg8I6pQUqvishqlQu0gu-1" source="Hg8I6pQUqvishqlQu0gu-48" target="Hg8I6pQUqvishqlQu0gu-49" edge="1">
          <mxGeometry relative="1" as="geometry" />
        </mxCell>
        <mxCell id="Hg8I6pQUqvishqlQu0gu-48" value="靶道 1 / 瞄准 1&lt;div&gt;（&lt;b&gt;T&lt;/b&gt;actic / &lt;b&gt;A&lt;/b&gt;im）&lt;/div&gt;" style="verticalLabelPosition=bottom;verticalAlign=top;html=1;strokeWidth=4;shape=mxgraph.flowchart.on-page_reference;plain-purple;gradientColor=none;strokeColor=#000000;fillColor=#D5E8D4;" parent="Hg8I6pQUqvishqlQu0gu-1" vertex="1">
          <mxGeometry x="359.25" y="1046" width="30" height="30" as="geometry" />
        </mxCell>
        <mxCell id="Hg8I6pQUqvishqlQu0gu-49" value="靶道 1 / 瞄准 &lt;b&gt;N&lt;/b&gt;" style="verticalLabelPosition=bottom;verticalAlign=top;html=1;strokeWidth=4;shape=mxgraph.flowchart.on-page_reference;plain-blue;gradientColor=none;fillColor=#D5E8D4;strokeColor=#000000;dashed=1;dashPattern=1 2;" parent="Hg8I6pQUqvishqlQu0gu-1" vertex="1">
          <mxGeometry x="469.25" y="1046" width="30" height="30" as="geometry" />
        </mxCell>
        <mxCell id="Hg8I6pQUqvishqlQu0gu-50" value="靶道 N / 瞄准 1&lt;br&gt;(Tn-A1)" style="verticalLabelPosition=bottom;verticalAlign=top;html=1;strokeWidth=4;shape=mxgraph.flowchart.on-page_reference;plain-blue;gradientColor=none;fillColor=#D5E8D4;strokeColor=#000000;" parent="Hg8I6pQUqvishqlQu0gu-1" vertex="1">
          <mxGeometry x="359.25" y="1150" width="30" height="30" as="geometry" />
        </mxCell>
        <mxCell id="Hg8I6pQUqvishqlQu0gu-51" value="靶道 N / 瞄准 &lt;b&gt;2&lt;/b&gt;&lt;br&gt;(Tn-A2)" style="verticalLabelPosition=bottom;verticalAlign=top;html=1;strokeWidth=4;shape=mxgraph.flowchart.on-page_reference;plain-blue;gradientColor=none;fillColor=#D5E8D4;strokeColor=#000000;" parent="Hg8I6pQUqvishqlQu0gu-1" vertex="1">
          <mxGeometry x="469.25" y="1150" width="30" height="30" as="geometry" />
        </mxCell>
        <mxCell id="Hg8I6pQUqvishqlQu0gu-52" style="edgeStyle=orthogonalEdgeStyle;shape=connector;curved=1;rounded=0;orthogonalLoop=1;jettySize=auto;html=1;entryX=0;entryY=0.5;entryDx=0;entryDy=0;entryPerimeter=0;strokeColor=default;strokeWidth=4;align=center;verticalAlign=middle;fontFamily=Helvetica;fontSize=15;fontColor=default;labelBackgroundColor=default;endArrow=none;endFill=0;" parent="Hg8I6pQUqvishqlQu0gu-1" source="Hg8I6pQUqvishqlQu0gu-45" target="Hg8I6pQUqvishqlQu0gu-50" edge="1">
          <mxGeometry relative="1" as="geometry" />
        </mxCell>
        <mxCell id="Hg8I6pQUqvishqlQu0gu-53" style="edgeStyle=orthogonalEdgeStyle;shape=connector;curved=1;rounded=0;orthogonalLoop=1;jettySize=auto;html=1;entryX=0;entryY=0.5;entryDx=0;entryDy=0;entryPerimeter=0;strokeColor=default;strokeWidth=4;align=center;verticalAlign=middle;fontFamily=Helvetica;fontSize=15;fontColor=default;labelBackgroundColor=default;endArrow=none;endFill=0;" parent="Hg8I6pQUqvishqlQu0gu-1" source="Hg8I6pQUqvishqlQu0gu-50" target="Hg8I6pQUqvishqlQu0gu-51" edge="1">
          <mxGeometry relative="1" as="geometry" />
        </mxCell>
        <mxCell id="Hg8I6pQUqvishqlQu0gu-54" value="靶道 N / 瞄准 &lt;b&gt;N&lt;/b&gt;&lt;div&gt;(Tn-An)&lt;/div&gt;" style="verticalLabelPosition=bottom;verticalAlign=top;html=1;strokeWidth=4;shape=mxgraph.flowchart.on-page_reference;plain-blue;gradientColor=none;fillColor=#D5E8D4;strokeColor=#000000;dashed=1;dashPattern=1 2;" parent="Hg8I6pQUqvishqlQu0gu-1" vertex="1">
          <mxGeometry x="579.25" y="1150" width="30" height="30" as="geometry" />
        </mxCell>
        <mxCell id="Hg8I6pQUqvishqlQu0gu-55" style="edgeStyle=orthogonalEdgeStyle;shape=connector;curved=1;rounded=0;orthogonalLoop=1;jettySize=auto;html=1;entryX=0;entryY=0.5;entryDx=0;entryDy=0;entryPerimeter=0;dashed=1;strokeColor=default;strokeWidth=4;align=center;verticalAlign=middle;fontFamily=Helvetica;fontSize=15;fontColor=default;labelBackgroundColor=default;endArrow=none;endFill=0;" parent="Hg8I6pQUqvishqlQu0gu-1" source="Hg8I6pQUqvishqlQu0gu-51" target="Hg8I6pQUqvishqlQu0gu-54" edge="1">
          <mxGeometry relative="1" as="geometry" />
        </mxCell>
        <mxCell id="Hg8I6pQUqvishqlQu0gu-58" value="靶场 2&lt;div&gt;&lt;span style=&quot;font-weight: normal;&quot;&gt;(2024.7.27.&lt;/span&gt;2&lt;span style=&quot;font-weight: normal;&quot;&gt;)&lt;/span&gt;&lt;/div&gt;" style="text;html=1;strokeColor=none;fillColor=none;align=center;verticalAlign=middle;whiteSpace=wrap;overflow=hidden;fontSize=14;fontStyle=1;fontFamily=Courier New;" parent="Hg8I6pQUqvishqlQu0gu-1" vertex="1">
          <mxGeometry x="10" y="1040" width="110" height="42" as="geometry" />
        </mxCell>
        <mxCell id="Hg8I6pQUqvishqlQu0gu-59" value="(Range)" style="text;html=1;strokeColor=none;fillColor=none;align=center;verticalAlign=middle;whiteSpace=wrap;overflow=hidden;fontSize=14;fontStyle=0;fontColor=#009900;" parent="Hg8I6pQUqvishqlQu0gu-1" vertex="1">
          <mxGeometry x="-10" y="1076" width="146.75" height="30" as="geometry" />
        </mxCell>
        <mxCell id="Hg8I6pQUqvishqlQu0gu-60" value="&lt;font style=&quot;font-size: 14px;&quot;&gt;&lt;span style=&quot;text-align: left;&quot;&gt;完整 Prompt Code：&lt;/span&gt;&lt;br style=&quot;text-align: left;&quot;&gt;&lt;/font&gt;&lt;b style=&quot;text-align: left; font-size: 17px;&quot;&gt;&lt;font color=&quot;#00cc00&quot;&gt;&lt;span style=&quot;font-family: &amp;quot;Courier New&amp;quot;; text-align: center; background-color: rgb(251, 251, 251);&quot;&gt;2024.7.27.2&lt;/span&gt;&lt;span style=&quot;font-family: &amp;quot;Courier New&amp;quot;; text-align: center; background-color: rgb(251, 251, 251);&quot;&gt;-Tn-An&lt;/span&gt;&lt;/font&gt;&lt;/b&gt;" style="shape=callout;whiteSpace=wrap;html=1;perimeter=calloutPerimeter;fontFamily=Helvetica;fontSize=15;fontColor=default;labelBackgroundColor=default;position2=0.1;base=20;size=10;position=0.05;textShadow=0;labelBorderColor=none;verticalAlign=middle;strokeColor=#999999;" parent="Hg8I6pQUqvishqlQu0gu-1" vertex="1">
          <mxGeometry x="570" y="1070" width="210" height="70" as="geometry" />
        </mxCell>
        <mxCell id="Hg8I6pQUqvishqlQu0gu-61" style="edgeStyle=orthogonalEdgeStyle;rounded=0;orthogonalLoop=1;jettySize=auto;html=1;startArrow=none;startFill=0;dashed=1;strokeColor=default;strokeWidth=4;align=center;verticalAlign=middle;fontFamily=Helvetica;fontSize=15;fontColor=default;labelBackgroundColor=default;curved=1;dashPattern=1 4;endArrow=none;endFill=0;" parent="Hg8I6pQUqvishqlQu0gu-1" edge="1">
          <mxGeometry relative="1" as="geometry">
            <mxPoint x="140" y="1000" as="sourcePoint" />
            <mxPoint x="780" y="1000" as="targetPoint" />
          </mxGeometry>
        </mxCell>
        <mxCell id="Hg8I6pQUqvishqlQu0gu-62" style="edgeStyle=orthogonalEdgeStyle;rounded=0;orthogonalLoop=1;jettySize=auto;html=1;startArrow=none;startFill=0;dashed=1;strokeColor=default;strokeWidth=4;align=center;verticalAlign=middle;fontFamily=Helvetica;fontSize=15;fontColor=default;labelBackgroundColor=default;curved=1;dashPattern=1 4;endArrow=none;endFill=0;" parent="Hg8I6pQUqvishqlQu0gu-1" edge="1">
          <mxGeometry relative="1" as="geometry">
            <mxPoint x="140" y="1260" as="sourcePoint" />
            <mxPoint x="770" y="1260" as="targetPoint" />
          </mxGeometry>
        </mxCell>
        <mxCell id="Hg8I6pQUqvishqlQu0gu-63" style="edgeStyle=orthogonalEdgeStyle;shape=connector;curved=1;rounded=0;orthogonalLoop=1;jettySize=auto;html=1;strokeColor=default;strokeWidth=4;align=center;verticalAlign=middle;fontFamily=Helvetica;fontSize=15;fontColor=default;labelBackgroundColor=default;endArrow=none;endFill=0;" parent="Hg8I6pQUqvishqlQu0gu-1" source="Hg8I6pQUqvishqlQu0gu-64" target="Hg8I6pQUqvishqlQu0gu-67" edge="1">
          <mxGeometry relative="1" as="geometry" />
        </mxCell>
        <mxCell id="Hg8I6pQUqvishqlQu0gu-64" value="" style="verticalLabelPosition=bottom;verticalAlign=top;html=1;strokeWidth=4;shape=mxgraph.flowchart.on-page_reference;plain-blue;gradientColor=none;fillColor=#B5E3Fe;strokeColor=#000000;" parent="Hg8I6pQUqvishqlQu0gu-1" vertex="1">
          <mxGeometry x="250.88" y="1316" width="30" height="30" as="geometry" />
        </mxCell>
        <mxCell id="Hg8I6pQUqvishqlQu0gu-65" value="" style="edgeStyle=orthogonalEdgeStyle;rounded=0;html=1;jettySize=auto;orthogonalLoop=1;strokeWidth=4;endArrow=none;endFill=0;" parent="Hg8I6pQUqvishqlQu0gu-1" target="Hg8I6pQUqvishqlQu0gu-64" edge="1">
          <mxGeometry x="192.25" y="211" as="geometry">
            <mxPoint x="138.63" y="1331" as="sourcePoint" />
          </mxGeometry>
        </mxCell>
        <mxCell id="Hg8I6pQUqvishqlQu0gu-66" style="edgeStyle=orthogonalEdgeStyle;shape=connector;curved=1;rounded=0;orthogonalLoop=1;jettySize=auto;html=1;dashed=1;strokeColor=default;strokeWidth=4;align=center;verticalAlign=middle;fontFamily=Helvetica;fontSize=15;fontColor=default;labelBackgroundColor=default;endArrow=none;endFill=0;" parent="Hg8I6pQUqvishqlQu0gu-1" source="Hg8I6pQUqvishqlQu0gu-67" target="Hg8I6pQUqvishqlQu0gu-68" edge="1">
          <mxGeometry relative="1" as="geometry" />
        </mxCell>
        <mxCell id="Hg8I6pQUqvishqlQu0gu-67" value="靶道 1 / 瞄准 1&lt;div&gt;（&lt;b&gt;T&lt;/b&gt;actic / &lt;b&gt;A&lt;/b&gt;im）&lt;/div&gt;" style="verticalLabelPosition=bottom;verticalAlign=top;html=1;strokeWidth=4;shape=mxgraph.flowchart.on-page_reference;plain-purple;gradientColor=none;strokeColor=#000000;fillColor=#D5E8D4;" parent="Hg8I6pQUqvishqlQu0gu-1" vertex="1">
          <mxGeometry x="360.88" y="1316" width="30" height="30" as="geometry" />
        </mxCell>
        <mxCell id="Hg8I6pQUqvishqlQu0gu-68" value="靶道 1 / 瞄准 &lt;b&gt;N&lt;/b&gt;" style="verticalLabelPosition=bottom;verticalAlign=top;html=1;strokeWidth=4;shape=mxgraph.flowchart.on-page_reference;plain-blue;gradientColor=none;fillColor=#D5E8D4;strokeColor=#000000;dashed=1;dashPattern=1 2;" parent="Hg8I6pQUqvishqlQu0gu-1" vertex="1">
          <mxGeometry x="470.88" y="1316" width="30" height="30" as="geometry" />
        </mxCell>
        <mxCell id="Hg8I6pQUqvishqlQu0gu-69" value="靶道 N / 瞄准 1&lt;br&gt;(Tn-A1)" style="verticalLabelPosition=bottom;verticalAlign=top;html=1;strokeWidth=4;shape=mxgraph.flowchart.on-page_reference;plain-blue;gradientColor=none;fillColor=#D5E8D4;strokeColor=#000000;" parent="Hg8I6pQUqvishqlQu0gu-1" vertex="1">
          <mxGeometry x="360.88" y="1420" width="30" height="30" as="geometry" />
        </mxCell>
        <mxCell id="Hg8I6pQUqvishqlQu0gu-70" value="靶道 N / 瞄准 &lt;b&gt;2&lt;/b&gt;&lt;br&gt;(Tn-A2)" style="verticalLabelPosition=bottom;verticalAlign=top;html=1;strokeWidth=4;shape=mxgraph.flowchart.on-page_reference;plain-blue;gradientColor=none;fillColor=#D5E8D4;strokeColor=#000000;" parent="Hg8I6pQUqvishqlQu0gu-1" vertex="1">
          <mxGeometry x="470.88" y="1420" width="30" height="30" as="geometry" />
        </mxCell>
        <mxCell id="Hg8I6pQUqvishqlQu0gu-71" style="edgeStyle=orthogonalEdgeStyle;shape=connector;curved=1;rounded=0;orthogonalLoop=1;jettySize=auto;html=1;entryX=0;entryY=0.5;entryDx=0;entryDy=0;entryPerimeter=0;strokeColor=default;strokeWidth=4;align=center;verticalAlign=middle;fontFamily=Helvetica;fontSize=15;fontColor=default;labelBackgroundColor=default;endArrow=none;endFill=0;" parent="Hg8I6pQUqvishqlQu0gu-1" source="Hg8I6pQUqvishqlQu0gu-64" target="Hg8I6pQUqvishqlQu0gu-69" edge="1">
          <mxGeometry relative="1" as="geometry" />
        </mxCell>
        <mxCell id="Hg8I6pQUqvishqlQu0gu-72" style="edgeStyle=orthogonalEdgeStyle;shape=connector;curved=1;rounded=0;orthogonalLoop=1;jettySize=auto;html=1;entryX=0;entryY=0.5;entryDx=0;entryDy=0;entryPerimeter=0;strokeColor=default;strokeWidth=4;align=center;verticalAlign=middle;fontFamily=Helvetica;fontSize=15;fontColor=default;labelBackgroundColor=default;endArrow=none;endFill=0;" parent="Hg8I6pQUqvishqlQu0gu-1" source="Hg8I6pQUqvishqlQu0gu-69" target="Hg8I6pQUqvishqlQu0gu-70" edge="1">
          <mxGeometry relative="1" as="geometry" />
        </mxCell>
        <mxCell id="Hg8I6pQUqvishqlQu0gu-73" value="靶道 N / 瞄准 &lt;b&gt;N&lt;/b&gt;&lt;div&gt;(Tn-An)&lt;/div&gt;" style="verticalLabelPosition=bottom;verticalAlign=top;html=1;strokeWidth=4;shape=mxgraph.flowchart.on-page_reference;plain-blue;gradientColor=none;fillColor=#D5E8D4;strokeColor=#000000;dashed=1;dashPattern=1 2;" parent="Hg8I6pQUqvishqlQu0gu-1" vertex="1">
          <mxGeometry x="580.88" y="1420" width="30" height="30" as="geometry" />
        </mxCell>
        <mxCell id="Hg8I6pQUqvishqlQu0gu-74" style="edgeStyle=orthogonalEdgeStyle;shape=connector;curved=1;rounded=0;orthogonalLoop=1;jettySize=auto;html=1;entryX=0;entryY=0.5;entryDx=0;entryDy=0;entryPerimeter=0;dashed=1;strokeColor=default;strokeWidth=4;align=center;verticalAlign=middle;fontFamily=Helvetica;fontSize=15;fontColor=default;labelBackgroundColor=default;endArrow=none;endFill=0;" parent="Hg8I6pQUqvishqlQu0gu-1" source="Hg8I6pQUqvishqlQu0gu-70" target="Hg8I6pQUqvishqlQu0gu-73" edge="1">
          <mxGeometry relative="1" as="geometry" />
        </mxCell>
        <mxCell id="Hg8I6pQUqvishqlQu0gu-75" value="靶场 n&lt;div&gt;&lt;span style=&quot;font-weight: normal;&quot;&gt;(yyyy.M.d.&lt;/span&gt;n&lt;span style=&quot;font-weight: normal;&quot;&gt;)&lt;/span&gt;&lt;/div&gt;" style="text;html=1;strokeColor=none;fillColor=none;align=center;verticalAlign=middle;whiteSpace=wrap;overflow=hidden;fontSize=14;fontStyle=1;fontFamily=Courier New;" parent="Hg8I6pQUqvishqlQu0gu-1" vertex="1">
          <mxGeometry x="11.629999999999999" y="1310" width="110" height="42" as="geometry" />
        </mxCell>
        <mxCell id="Hg8I6pQUqvishqlQu0gu-76" value="(Range)" style="text;html=1;strokeColor=none;fillColor=none;align=center;verticalAlign=middle;whiteSpace=wrap;overflow=hidden;fontSize=14;fontStyle=0;fontColor=#009900;" parent="Hg8I6pQUqvishqlQu0gu-1" vertex="1">
          <mxGeometry x="-8.370000000000001" y="1346" width="146.75" height="30" as="geometry" />
        </mxCell>
        <mxCell id="Hg8I6pQUqvishqlQu0gu-77" value="&lt;font style=&quot;font-size: 14px;&quot;&gt;&lt;span style=&quot;text-align: left;&quot;&gt;完整 Prompt Code：&lt;/span&gt;&lt;br style=&quot;text-align: left;&quot;&gt;&lt;/font&gt;&lt;b style=&quot;text-align: left; font-size: 17px;&quot;&gt;&lt;font color=&quot;#00cc00&quot;&gt;&lt;span style=&quot;font-family: &amp;quot;Courier New&amp;quot;; text-align: center; background-color: rgb(251, 251, 251);&quot;&gt;yyyy.M.d.n&lt;/span&gt;&lt;span style=&quot;font-family: &amp;quot;Courier New&amp;quot;; text-align: center; background-color: rgb(251, 251, 251);&quot;&gt;-Tn-An&lt;/span&gt;&lt;/font&gt;&lt;/b&gt;" style="shape=callout;whiteSpace=wrap;html=1;perimeter=calloutPerimeter;fontFamily=Helvetica;fontSize=15;fontColor=default;labelBackgroundColor=default;position2=0.1;base=20;size=10;position=0.05;textShadow=0;labelBorderColor=none;verticalAlign=middle;strokeColor=#999999;" parent="Hg8I6pQUqvishqlQu0gu-1" vertex="1">
          <mxGeometry x="571.63" y="1340" width="210" height="70" as="geometry" />
        </mxCell>
        <mxCell id="Hg8I6pQUqvishqlQu0gu-84" value="&lt;font style=&quot;font-size: 20px;&quot;&gt;PromptRange&lt;/font&gt;" style="shape=curlyBracket;whiteSpace=wrap;html=1;rounded=1;labelPosition=left;verticalLabelPosition=middle;align=right;verticalAlign=middle;fontFamily=Helvetica;fontSize=15;fontColor=default;labelBackgroundColor=default;strokeWidth=3;" parent="Hg8I6pQUqvishqlQu0gu-1" vertex="1">
          <mxGeometry x="-30" y="730" width="30" height="600" as="geometry" />
        </mxCell>
        <mxCell id="x-XKernMqXgoAJoT4eD8-5" value="" style="endArrow=none;html=1;rounded=0;strokeColor=default;strokeWidth=1;align=center;verticalAlign=middle;fontFamily=Helvetica;fontSize=15;fontColor=default;labelBackgroundColor=default;exitX=0;exitY=0.5;exitDx=0;exitDy=0;exitPerimeter=0;entryX=0.007;entryY=1.066;entryDx=0;entryDy=0;curved=0;entryPerimeter=0;" parent="Hg8I6pQUqvishqlQu0gu-1" source="Hg8I6pQUqvishqlQu0gu-20" target="x-XKernMqXgoAJoT4eD8-4" edge="1">
          <mxGeometry width="50" height="50" relative="1" as="geometry">
            <mxPoint x="1134" y="692" as="sourcePoint" />
            <mxPoint x="810" y="560" as="targetPoint" />
          </mxGeometry>
        </mxCell>
        <mxCell id="x-XKernMqXgoAJoT4eD8-6" value="" style="group" parent="Hg8I6pQUqvishqlQu0gu-1" vertex="1" connectable="0">
          <mxGeometry x="390" y="430" width="330" height="155" as="geometry" />
        </mxCell>
        <mxCell id="x-XKernMqXgoAJoT4eD8-0" value="&lt;font color=&quot;#00cc00&quot; style=&quot;font-size: 13px;&quot;&gt;2024.7.27.1&lt;/font&gt;&lt;div style=&quot;font-size: 14px;&quot;&gt;靶场名称，以靶场创建日期为前缀，最后 &lt;font color=&quot;#00cc00&quot;&gt;&lt;b&gt;.1&lt;/b&gt;&lt;/font&gt; 表示当天创建的第&amp;nbsp; 1 个靶场。&lt;/div&gt;" style="html=1;shadow=0;dashed=0;shape=mxgraph.bootstrap.popover;fillColor=#ffffff;strokeColor=#CCCCCC;dx=94.48;dy=5.49;rSize=5;whiteSpace=wrap;verticalAlign=top;spacing=10;fontSize=13;spacingLeft=0;align=left;spacingTop=-5;fontFamily=Helvetica;fontColor=default;labelBackgroundColor=default;" parent="x-XKernMqXgoAJoT4eD8-6" vertex="1">
          <mxGeometry width="145" height="110" as="geometry" />
        </mxCell>
        <mxCell id="x-XKernMqXgoAJoT4eD8-1" value="&lt;font color=&quot;#00cc00&quot; style=&quot;font-size: 14px;&quot;&gt;T1.1&lt;/font&gt;&lt;div style=&quot;font-size: 14px;&quot;&gt;当前靶道的编号，按照层级表示。&lt;/div&gt;" style="html=1;shadow=0;dashed=0;shape=mxgraph.bootstrap.popover;fillColor=#ffffff;strokeColor=#CCCCCC;dx=44.04;dy=5.87;rSize=5;whiteSpace=wrap;verticalAlign=top;spacing=10;fontSize=13;spacingLeft=0;align=left;spacingTop=-5;fontFamily=Helvetica;fontColor=default;labelBackgroundColor=default;" parent="x-XKernMqXgoAJoT4eD8-6" vertex="1">
          <mxGeometry x="151.88" width="80" height="110" as="geometry" />
        </mxCell>
        <mxCell id="x-XKernMqXgoAJoT4eD8-2" value="&lt;font color=&quot;#00cc00&quot; style=&quot;font-size: 14px;&quot;&gt;A2&lt;/font&gt;&lt;br style=&quot;font-size: 13px;&quot;&gt;&lt;div style=&quot;font-size: 13px;&quot;&gt;当前靶道下第 2 次瞄准，始终为整数。&lt;/div&gt;" style="html=1;shadow=0;dashed=0;shape=mxgraph.bootstrap.popover;fillColor=#ffffff;strokeColor=#CCCCCC;dx=12.58;dy=6.94;rSize=5;whiteSpace=wrap;verticalAlign=top;spacing=10;fontSize=13;spacingLeft=0;align=left;spacingTop=-5;fontFamily=Helvetica;fontColor=default;labelBackgroundColor=default;" parent="x-XKernMqXgoAJoT4eD8-6" vertex="1">
          <mxGeometry x="238.5" width="91.5" height="110" as="geometry" />
        </mxCell>
        <mxCell id="x-XKernMqXgoAJoT4eD8-3" value="&lt;font style=&quot;font-size: 15px;&quot;&gt;&amp;nbsp;Prompt Code&amp;nbsp;&lt;/font&gt;" style="shape=partialRectangle;whiteSpace=wrap;html=1;bottom=1;right=1;left=1;top=0;fillColor=none;routingCenterX=-0.5;fontFamily=Helvetica;fontSize=13;fontColor=default;labelBackgroundColor=default;spacingTop=40;" parent="x-XKernMqXgoAJoT4eD8-6" vertex="1">
          <mxGeometry x="25.129999999999995" y="110" width="249.87" height="45" as="geometry" />
        </mxCell>
        <mxCell id="x-XKernMqXgoAJoT4eD8-4" value="&lt;font color=&quot;#00cc00&quot; style=&quot;font-size: 25px;&quot;&gt;2024.7.27.1-T1.1-A2&lt;/font&gt;" style="text;html=1;align=center;verticalAlign=middle;resizable=0;points=[];autosize=1;strokeColor=none;fillColor=none;fontFamily=Helvetica;fontSize=25;fontColor=default;labelBackgroundColor=default;" parent="x-XKernMqXgoAJoT4eD8-6" vertex="1">
          <mxGeometry x="24.50999999999999" y="110" width="250" height="40" as="geometry" />
        </mxCell>
      </root>
    </mxGraphModel>
  </diagram>
  <diagram name="PromptRange 的副本 作图" id="0kAGCqlym4xe1UpqOkEQ">
    <mxGraphModel dx="2010" dy="864" grid="1" gridSize="10" guides="1" tooltips="1" connect="1" arrows="1" fold="1" page="1" pageScale="1" pageWidth="827" pageHeight="1169" math="0" shadow="0">
      <root>
        <mxCell id="KsJybWhY3H7V5RDnl8yh-0" />
        <mxCell id="KsJybWhY3H7V5RDnl8yh-1" parent="KsJybWhY3H7V5RDnl8yh-0" />
        <mxCell id="KsJybWhY3H7V5RDnl8yh-2" value="" style="verticalLabelPosition=bottom;verticalAlign=top;html=1;strokeWidth=4;shape=mxgraph.flowchart.on-page_reference;plain-blue;gradientColor=none;fillColor=#B5E3Fe;strokeColor=#000000;" vertex="1" parent="KsJybWhY3H7V5RDnl8yh-1">
          <mxGeometry x="249.25" y="726" width="30" height="30" as="geometry" />
        </mxCell>
        <mxCell id="KsJybWhY3H7V5RDnl8yh-3" value="" style="edgeStyle=orthogonalEdgeStyle;rounded=0;html=1;jettySize=auto;orthogonalLoop=1;strokeWidth=4;endArrow=none;endFill=0;" edge="1" parent="KsJybWhY3H7V5RDnl8yh-1" target="KsJybWhY3H7V5RDnl8yh-2">
          <mxGeometry x="192.25" y="211" as="geometry">
            <mxPoint x="137" y="741" as="sourcePoint" />
          </mxGeometry>
        </mxCell>
        <mxCell id="KsJybWhY3H7V5RDnl8yh-4" value="靶场 1&lt;div&gt;&lt;span style=&quot;font-weight: normal;&quot;&gt;(2024.7.27.&lt;/span&gt;1&lt;span style=&quot;font-weight: normal;&quot;&gt;)&lt;/span&gt;&lt;/div&gt;" style="text;html=1;strokeColor=none;fillColor=none;align=center;verticalAlign=middle;whiteSpace=wrap;overflow=hidden;fontSize=14;fontStyle=1;fontFamily=Courier New;" vertex="1" parent="KsJybWhY3H7V5RDnl8yh-1">
          <mxGeometry x="11.63" y="720" width="110" height="42" as="geometry" />
        </mxCell>
        <mxCell id="KsJybWhY3H7V5RDnl8yh-5" value="(Range)" style="text;html=1;strokeColor=none;fillColor=none;align=center;verticalAlign=middle;whiteSpace=wrap;overflow=hidden;fontSize=14;fontStyle=0;fontColor=#009900;" vertex="1" parent="KsJybWhY3H7V5RDnl8yh-1">
          <mxGeometry x="-8.37" y="756" width="146.75" height="30" as="geometry" />
        </mxCell>
        <mxCell id="KsJybWhY3H7V5RDnl8yh-6" value="" style="edgeStyle=orthogonalEdgeStyle;shape=connector;curved=1;rounded=0;orthogonalLoop=1;jettySize=auto;html=1;strokeColor=default;strokeWidth=4;align=center;verticalAlign=middle;fontFamily=Helvetica;fontSize=15;fontColor=default;labelBackgroundColor=default;endArrow=none;endFill=0;" edge="1" parent="KsJybWhY3H7V5RDnl8yh-1" source="KsJybWhY3H7V5RDnl8yh-7" target="KsJybWhY3H7V5RDnl8yh-10">
          <mxGeometry relative="1" as="geometry" />
        </mxCell>
        <mxCell id="KsJybWhY3H7V5RDnl8yh-7" value="靶道 1 / 瞄准 1&lt;div&gt;（&lt;b&gt;T&lt;/b&gt;actic / &lt;b&gt;A&lt;/b&gt;im）&lt;/div&gt;" style="verticalLabelPosition=bottom;verticalAlign=top;html=1;strokeWidth=4;shape=mxgraph.flowchart.on-page_reference;plain-purple;gradientColor=none;strokeColor=#000000;fillColor=#D5E8D4;" vertex="1" parent="KsJybWhY3H7V5RDnl8yh-1">
          <mxGeometry x="359.25" y="726" width="30" height="30" as="geometry" />
        </mxCell>
        <mxCell id="KsJybWhY3H7V5RDnl8yh-8" style="edgeStyle=orthogonalEdgeStyle;shape=connector;curved=1;rounded=0;orthogonalLoop=1;jettySize=auto;html=1;entryX=0;entryY=0.5;entryDx=0;entryDy=0;entryPerimeter=0;strokeColor=default;strokeWidth=4;align=center;verticalAlign=middle;fontFamily=Helvetica;fontSize=15;fontColor=default;labelBackgroundColor=default;endArrow=none;endFill=0;" edge="1" parent="KsJybWhY3H7V5RDnl8yh-1" source="KsJybWhY3H7V5RDnl8yh-2" target="KsJybWhY3H7V5RDnl8yh-7">
          <mxGeometry relative="1" as="geometry" />
        </mxCell>
        <mxCell id="KsJybWhY3H7V5RDnl8yh-9" value="" style="edgeStyle=orthogonalEdgeStyle;shape=connector;curved=1;rounded=0;orthogonalLoop=1;jettySize=auto;html=1;strokeColor=default;strokeWidth=4;align=center;verticalAlign=middle;fontFamily=Helvetica;fontSize=15;fontColor=default;labelBackgroundColor=default;endArrow=none;endFill=0;" edge="1" parent="KsJybWhY3H7V5RDnl8yh-1" source="KsJybWhY3H7V5RDnl8yh-10" target="KsJybWhY3H7V5RDnl8yh-14">
          <mxGeometry relative="1" as="geometry" />
        </mxCell>
        <mxCell id="KsJybWhY3H7V5RDnl8yh-10" value="靶道 1 / 瞄准 &lt;b&gt;2&lt;/b&gt;&lt;div&gt;(T1-A2)&lt;/div&gt;" style="verticalLabelPosition=bottom;verticalAlign=top;html=1;strokeWidth=4;shape=mxgraph.flowchart.on-page_reference;plain-purple;gradientColor=none;strokeColor=#000000;fillColor=#D5E8D4;" vertex="1" parent="KsJybWhY3H7V5RDnl8yh-1">
          <mxGeometry x="469.25" y="726" width="30" height="30" as="geometry" />
        </mxCell>
        <mxCell id="KsJybWhY3H7V5RDnl8yh-11" value="" style="edgeStyle=orthogonalEdgeStyle;shape=connector;curved=1;rounded=0;orthogonalLoop=1;jettySize=auto;html=1;strokeColor=default;strokeWidth=4;align=center;verticalAlign=middle;fontFamily=Helvetica;fontSize=15;fontColor=default;labelBackgroundColor=default;endArrow=none;endFill=0;" edge="1" parent="KsJybWhY3H7V5RDnl8yh-1" source="KsJybWhY3H7V5RDnl8yh-12" target="KsJybWhY3H7V5RDnl8yh-23">
          <mxGeometry relative="1" as="geometry" />
        </mxCell>
        <mxCell id="KsJybWhY3H7V5RDnl8yh-12" value="靶道 2 / 瞄准 1" style="verticalLabelPosition=bottom;verticalAlign=top;html=1;strokeWidth=4;shape=mxgraph.flowchart.on-page_reference;plain-blue;gradientColor=none;fillColor=#D5E8D4;strokeColor=#000000;" vertex="1" parent="KsJybWhY3H7V5RDnl8yh-1">
          <mxGeometry x="359.25" y="820" width="30" height="30" as="geometry" />
        </mxCell>
        <mxCell id="KsJybWhY3H7V5RDnl8yh-13" value="" style="edgeStyle=orthogonalEdgeStyle;shape=connector;curved=1;rounded=0;orthogonalLoop=1;jettySize=auto;html=1;strokeColor=default;strokeWidth=4;align=center;verticalAlign=middle;fontFamily=Helvetica;fontSize=15;fontColor=default;labelBackgroundColor=default;endArrow=none;endFill=0;dashed=1;" edge="1" parent="KsJybWhY3H7V5RDnl8yh-1" source="KsJybWhY3H7V5RDnl8yh-14" target="KsJybWhY3H7V5RDnl8yh-15">
          <mxGeometry relative="1" as="geometry" />
        </mxCell>
        <mxCell id="KsJybWhY3H7V5RDnl8yh-14" value="靶道 1 / 瞄准 &lt;b&gt;3&lt;/b&gt;&lt;div&gt;(T1-A3）&lt;/div&gt;" style="verticalLabelPosition=bottom;verticalAlign=top;html=1;strokeWidth=4;shape=mxgraph.flowchart.on-page_reference;plain-purple;gradientColor=none;strokeColor=#000000;fillColor=#D5E8D4;" vertex="1" parent="KsJybWhY3H7V5RDnl8yh-1">
          <mxGeometry x="579.25" y="726" width="30" height="30" as="geometry" />
        </mxCell>
        <mxCell id="KsJybWhY3H7V5RDnl8yh-15" value="靶道 1 / 瞄准 &lt;b&gt;N&lt;/b&gt;&lt;br&gt;（T1-An）" style="verticalLabelPosition=bottom;verticalAlign=top;html=1;strokeWidth=4;shape=mxgraph.flowchart.on-page_reference;plain-purple;gradientColor=none;strokeColor=#000000;fillColor=#D5E8D4;dashed=1;dashPattern=1 2;" vertex="1" parent="KsJybWhY3H7V5RDnl8yh-1">
          <mxGeometry x="689.25" y="726" width="30" height="30" as="geometry" />
        </mxCell>
        <mxCell id="KsJybWhY3H7V5RDnl8yh-16" value="" style="edgeStyle=orthogonalEdgeStyle;shape=connector;curved=1;rounded=0;orthogonalLoop=1;jettySize=auto;html=1;strokeColor=default;strokeWidth=4;align=center;verticalAlign=middle;fontFamily=Helvetica;fontSize=15;fontColor=default;labelBackgroundColor=default;endArrow=none;endFill=0;" edge="1" parent="KsJybWhY3H7V5RDnl8yh-1" source="KsJybWhY3H7V5RDnl8yh-17" target="KsJybWhY3H7V5RDnl8yh-20">
          <mxGeometry relative="1" as="geometry" />
        </mxCell>
        <mxCell id="KsJybWhY3H7V5RDnl8yh-17" value="靶道 &lt;b&gt;1.1&lt;/b&gt; / 瞄准 1" style="verticalLabelPosition=bottom;verticalAlign=top;html=1;strokeWidth=4;shape=mxgraph.flowchart.on-page_reference;plain-purple;gradientColor=none;strokeColor=#000000;fillColor=#D5E8D4;" vertex="1" parent="KsJybWhY3H7V5RDnl8yh-1">
          <mxGeometry x="469.25" y="636" width="30" height="30" as="geometry" />
        </mxCell>
        <mxCell id="KsJybWhY3H7V5RDnl8yh-18" style="edgeStyle=orthogonalEdgeStyle;shape=connector;curved=1;rounded=0;orthogonalLoop=1;jettySize=auto;html=1;entryX=0;entryY=0.5;entryDx=0;entryDy=0;entryPerimeter=0;strokeColor=default;strokeWidth=4;align=center;verticalAlign=middle;fontFamily=Helvetica;fontSize=15;fontColor=default;labelBackgroundColor=default;endArrow=none;endFill=0;" edge="1" parent="KsJybWhY3H7V5RDnl8yh-1" source="KsJybWhY3H7V5RDnl8yh-7" target="KsJybWhY3H7V5RDnl8yh-17">
          <mxGeometry relative="1" as="geometry" />
        </mxCell>
        <mxCell id="KsJybWhY3H7V5RDnl8yh-19" value="" style="edgeStyle=orthogonalEdgeStyle;shape=connector;curved=1;rounded=0;orthogonalLoop=1;jettySize=auto;html=1;strokeColor=default;strokeWidth=4;align=center;verticalAlign=middle;fontFamily=Helvetica;fontSize=15;fontColor=default;labelBackgroundColor=default;endArrow=none;endFill=0;dashed=1;" edge="1" parent="KsJybWhY3H7V5RDnl8yh-1" source="KsJybWhY3H7V5RDnl8yh-20" target="KsJybWhY3H7V5RDnl8yh-21">
          <mxGeometry relative="1" as="geometry" />
        </mxCell>
        <mxCell id="KsJybWhY3H7V5RDnl8yh-20" value="靶道 1.1 / 瞄准 &lt;b&gt;2&lt;/b&gt;" style="verticalLabelPosition=bottom;verticalAlign=top;html=1;strokeWidth=4;shape=mxgraph.flowchart.on-page_reference;plain-purple;gradientColor=none;strokeColor=#000000;fillColor=#D5E8D4;" vertex="1" parent="KsJybWhY3H7V5RDnl8yh-1">
          <mxGeometry x="579.25" y="636" width="30" height="30" as="geometry" />
        </mxCell>
        <mxCell id="KsJybWhY3H7V5RDnl8yh-21" value="靶道 1.1 / 瞄准 &lt;b&gt;N&lt;/b&gt;" style="verticalLabelPosition=bottom;verticalAlign=top;html=1;strokeWidth=4;shape=mxgraph.flowchart.on-page_reference;plain-purple;gradientColor=none;strokeColor=#000000;fillColor=#D5E8D4;dashed=1;dashPattern=1 2;" vertex="1" parent="KsJybWhY3H7V5RDnl8yh-1">
          <mxGeometry x="689.25" y="636" width="30" height="30" as="geometry" />
        </mxCell>
        <mxCell id="KsJybWhY3H7V5RDnl8yh-22" value="" style="edgeStyle=orthogonalEdgeStyle;shape=connector;curved=1;rounded=0;orthogonalLoop=1;jettySize=auto;html=1;strokeColor=default;strokeWidth=4;align=center;verticalAlign=middle;fontFamily=Helvetica;fontSize=15;fontColor=default;labelBackgroundColor=default;endArrow=none;endFill=0;dashed=1;" edge="1" parent="KsJybWhY3H7V5RDnl8yh-1" source="KsJybWhY3H7V5RDnl8yh-23" target="KsJybWhY3H7V5RDnl8yh-31">
          <mxGeometry relative="1" as="geometry" />
        </mxCell>
        <mxCell id="KsJybWhY3H7V5RDnl8yh-23" value="靶道 2 / 瞄准 &lt;b&gt;2&lt;/b&gt;" style="verticalLabelPosition=bottom;verticalAlign=top;html=1;strokeWidth=4;shape=mxgraph.flowchart.on-page_reference;plain-blue;gradientColor=none;fillColor=#D5E8D4;strokeColor=#000000;" vertex="1" parent="KsJybWhY3H7V5RDnl8yh-1">
          <mxGeometry x="469.25" y="820" width="30" height="30" as="geometry" />
        </mxCell>
        <mxCell id="KsJybWhY3H7V5RDnl8yh-24" style="edgeStyle=orthogonalEdgeStyle;shape=connector;curved=1;rounded=0;orthogonalLoop=1;jettySize=auto;html=1;entryX=0;entryY=0.5;entryDx=0;entryDy=0;entryPerimeter=0;strokeColor=default;strokeWidth=4;align=center;verticalAlign=middle;fontFamily=Helvetica;fontSize=15;fontColor=default;labelBackgroundColor=default;endArrow=none;endFill=0;" edge="1" parent="KsJybWhY3H7V5RDnl8yh-1" source="KsJybWhY3H7V5RDnl8yh-2" target="KsJybWhY3H7V5RDnl8yh-12">
          <mxGeometry relative="1" as="geometry" />
        </mxCell>
        <mxCell id="KsJybWhY3H7V5RDnl8yh-25" value="" style="edgeStyle=orthogonalEdgeStyle;shape=connector;curved=1;rounded=0;orthogonalLoop=1;jettySize=auto;html=1;strokeColor=default;strokeWidth=4;align=center;verticalAlign=middle;fontFamily=Helvetica;fontSize=15;fontColor=default;labelBackgroundColor=default;endArrow=none;endFill=0;" edge="1" parent="KsJybWhY3H7V5RDnl8yh-1" source="KsJybWhY3H7V5RDnl8yh-26" target="KsJybWhY3H7V5RDnl8yh-29">
          <mxGeometry relative="1" as="geometry" />
        </mxCell>
        <mxCell id="KsJybWhY3H7V5RDnl8yh-26" value="靶道 N / 瞄准 1&lt;br&gt;(Tn-A1)" style="verticalLabelPosition=bottom;verticalAlign=top;html=1;strokeWidth=4;shape=mxgraph.flowchart.on-page_reference;plain-blue;gradientColor=none;fillColor=#D5E8D4;strokeColor=#000000;" vertex="1" parent="KsJybWhY3H7V5RDnl8yh-1">
          <mxGeometry x="359.25" y="910" width="30" height="30" as="geometry" />
        </mxCell>
        <mxCell id="KsJybWhY3H7V5RDnl8yh-27" style="edgeStyle=orthogonalEdgeStyle;shape=connector;curved=1;rounded=0;orthogonalLoop=1;jettySize=auto;html=1;entryX=0;entryY=0.5;entryDx=0;entryDy=0;entryPerimeter=0;strokeColor=default;strokeWidth=4;align=center;verticalAlign=middle;fontFamily=Helvetica;fontSize=15;fontColor=default;labelBackgroundColor=default;endArrow=none;endFill=0;dashed=1;" edge="1" parent="KsJybWhY3H7V5RDnl8yh-1" source="KsJybWhY3H7V5RDnl8yh-2" target="KsJybWhY3H7V5RDnl8yh-26">
          <mxGeometry relative="1" as="geometry">
            <Array as="points">
              <mxPoint x="300" y="741" />
              <mxPoint x="300" y="925" />
            </Array>
          </mxGeometry>
        </mxCell>
        <mxCell id="KsJybWhY3H7V5RDnl8yh-28" value="" style="edgeStyle=orthogonalEdgeStyle;shape=connector;curved=1;rounded=0;orthogonalLoop=1;jettySize=auto;html=1;strokeColor=default;strokeWidth=4;align=center;verticalAlign=middle;fontFamily=Helvetica;fontSize=15;fontColor=default;labelBackgroundColor=default;endArrow=none;endFill=0;dashed=1;" edge="1" parent="KsJybWhY3H7V5RDnl8yh-1" source="KsJybWhY3H7V5RDnl8yh-29" target="KsJybWhY3H7V5RDnl8yh-30">
          <mxGeometry relative="1" as="geometry" />
        </mxCell>
        <mxCell id="KsJybWhY3H7V5RDnl8yh-29" value="靶道 N / 瞄准 &lt;b&gt;2&lt;/b&gt;&lt;br&gt;(Tn-A2)" style="verticalLabelPosition=bottom;verticalAlign=top;html=1;strokeWidth=4;shape=mxgraph.flowchart.on-page_reference;plain-blue;gradientColor=none;fillColor=#D5E8D4;strokeColor=#000000;" vertex="1" parent="KsJybWhY3H7V5RDnl8yh-1">
          <mxGeometry x="469.25" y="910" width="30" height="30" as="geometry" />
        </mxCell>
        <mxCell id="KsJybWhY3H7V5RDnl8yh-30" value="靶道 N / 瞄准 &lt;b&gt;N&lt;/b&gt;&lt;div&gt;(Tn-An)&lt;/div&gt;" style="verticalLabelPosition=bottom;verticalAlign=top;html=1;strokeWidth=4;shape=mxgraph.flowchart.on-page_reference;plain-blue;gradientColor=none;fillColor=#D5E8D4;strokeColor=#000000;dashed=1;dashPattern=1 2;" vertex="1" parent="KsJybWhY3H7V5RDnl8yh-1">
          <mxGeometry x="579.25" y="910" width="30" height="30" as="geometry" />
        </mxCell>
        <mxCell id="KsJybWhY3H7V5RDnl8yh-31" value="靶道 2 / 瞄准 &lt;b&gt;N&lt;/b&gt;" style="verticalLabelPosition=bottom;verticalAlign=top;html=1;strokeWidth=4;shape=mxgraph.flowchart.on-page_reference;plain-blue;gradientColor=none;fillColor=#D5E8D4;strokeColor=#000000;dashed=1;dashPattern=1 2;" vertex="1" parent="KsJybWhY3H7V5RDnl8yh-1">
          <mxGeometry x="579.25" y="820" width="30" height="30" as="geometry" />
        </mxCell>
        <mxCell id="KsJybWhY3H7V5RDnl8yh-32" style="edgeStyle=orthogonalEdgeStyle;shape=connector;curved=1;rounded=0;orthogonalLoop=1;jettySize=auto;html=1;strokeColor=default;strokeWidth=4;align=center;verticalAlign=middle;fontFamily=Helvetica;fontSize=15;fontColor=default;labelBackgroundColor=default;endArrow=none;endFill=0;" edge="1" parent="KsJybWhY3H7V5RDnl8yh-1" source="KsJybWhY3H7V5RDnl8yh-33" target="KsJybWhY3H7V5RDnl8yh-36">
          <mxGeometry relative="1" as="geometry" />
        </mxCell>
        <mxCell id="KsJybWhY3H7V5RDnl8yh-33" value="" style="verticalLabelPosition=bottom;verticalAlign=top;html=1;strokeWidth=4;shape=mxgraph.flowchart.on-page_reference;plain-blue;gradientColor=none;fillColor=#B5E3Fe;strokeColor=#000000;" vertex="1" parent="KsJybWhY3H7V5RDnl8yh-1">
          <mxGeometry x="249.25" y="1046" width="30" height="30" as="geometry" />
        </mxCell>
        <mxCell id="KsJybWhY3H7V5RDnl8yh-34" value="" style="edgeStyle=orthogonalEdgeStyle;rounded=0;html=1;jettySize=auto;orthogonalLoop=1;strokeWidth=4;endArrow=none;endFill=0;" edge="1" parent="KsJybWhY3H7V5RDnl8yh-1" target="KsJybWhY3H7V5RDnl8yh-33">
          <mxGeometry x="192.25" y="211" as="geometry">
            <mxPoint x="137" y="1061" as="sourcePoint" />
          </mxGeometry>
        </mxCell>
        <mxCell id="KsJybWhY3H7V5RDnl8yh-35" style="edgeStyle=orthogonalEdgeStyle;shape=connector;curved=1;rounded=0;orthogonalLoop=1;jettySize=auto;html=1;dashed=1;strokeColor=default;strokeWidth=4;align=center;verticalAlign=middle;fontFamily=Helvetica;fontSize=15;fontColor=default;labelBackgroundColor=default;endArrow=none;endFill=0;" edge="1" parent="KsJybWhY3H7V5RDnl8yh-1" source="KsJybWhY3H7V5RDnl8yh-36" target="KsJybWhY3H7V5RDnl8yh-37">
          <mxGeometry relative="1" as="geometry" />
        </mxCell>
        <mxCell id="KsJybWhY3H7V5RDnl8yh-36" value="靶道 1 / 瞄准 1&lt;div&gt;（&lt;b&gt;T&lt;/b&gt;actic / &lt;b&gt;A&lt;/b&gt;im）&lt;/div&gt;" style="verticalLabelPosition=bottom;verticalAlign=top;html=1;strokeWidth=4;shape=mxgraph.flowchart.on-page_reference;plain-purple;gradientColor=none;strokeColor=#000000;fillColor=#D5E8D4;" vertex="1" parent="KsJybWhY3H7V5RDnl8yh-1">
          <mxGeometry x="359.25" y="1046" width="30" height="30" as="geometry" />
        </mxCell>
        <mxCell id="KsJybWhY3H7V5RDnl8yh-37" value="靶道 1 / 瞄准 &lt;b&gt;N&lt;/b&gt;" style="verticalLabelPosition=bottom;verticalAlign=top;html=1;strokeWidth=4;shape=mxgraph.flowchart.on-page_reference;plain-blue;gradientColor=none;fillColor=#D5E8D4;strokeColor=#000000;dashed=1;dashPattern=1 2;" vertex="1" parent="KsJybWhY3H7V5RDnl8yh-1">
          <mxGeometry x="469.25" y="1046" width="30" height="30" as="geometry" />
        </mxCell>
        <mxCell id="KsJybWhY3H7V5RDnl8yh-38" value="靶道 N / 瞄准 1&lt;br&gt;(Tn-A1)" style="verticalLabelPosition=bottom;verticalAlign=top;html=1;strokeWidth=4;shape=mxgraph.flowchart.on-page_reference;plain-blue;gradientColor=none;fillColor=#D5E8D4;strokeColor=#000000;" vertex="1" parent="KsJybWhY3H7V5RDnl8yh-1">
          <mxGeometry x="359.25" y="1150" width="30" height="30" as="geometry" />
        </mxCell>
        <mxCell id="KsJybWhY3H7V5RDnl8yh-39" value="靶道 N / 瞄准 &lt;b&gt;2&lt;/b&gt;&lt;br&gt;(Tn-A2)" style="verticalLabelPosition=bottom;verticalAlign=top;html=1;strokeWidth=4;shape=mxgraph.flowchart.on-page_reference;plain-blue;gradientColor=none;fillColor=#D5E8D4;strokeColor=#000000;" vertex="1" parent="KsJybWhY3H7V5RDnl8yh-1">
          <mxGeometry x="469.25" y="1150" width="30" height="30" as="geometry" />
        </mxCell>
        <mxCell id="KsJybWhY3H7V5RDnl8yh-40" style="edgeStyle=orthogonalEdgeStyle;shape=connector;curved=1;rounded=0;orthogonalLoop=1;jettySize=auto;html=1;entryX=0;entryY=0.5;entryDx=0;entryDy=0;entryPerimeter=0;strokeColor=default;strokeWidth=4;align=center;verticalAlign=middle;fontFamily=Helvetica;fontSize=15;fontColor=default;labelBackgroundColor=default;endArrow=none;endFill=0;" edge="1" parent="KsJybWhY3H7V5RDnl8yh-1" source="KsJybWhY3H7V5RDnl8yh-33" target="KsJybWhY3H7V5RDnl8yh-38">
          <mxGeometry relative="1" as="geometry" />
        </mxCell>
        <mxCell id="KsJybWhY3H7V5RDnl8yh-41" style="edgeStyle=orthogonalEdgeStyle;shape=connector;curved=1;rounded=0;orthogonalLoop=1;jettySize=auto;html=1;entryX=0;entryY=0.5;entryDx=0;entryDy=0;entryPerimeter=0;strokeColor=default;strokeWidth=4;align=center;verticalAlign=middle;fontFamily=Helvetica;fontSize=15;fontColor=default;labelBackgroundColor=default;endArrow=none;endFill=0;" edge="1" parent="KsJybWhY3H7V5RDnl8yh-1" source="KsJybWhY3H7V5RDnl8yh-38" target="KsJybWhY3H7V5RDnl8yh-39">
          <mxGeometry relative="1" as="geometry" />
        </mxCell>
        <mxCell id="KsJybWhY3H7V5RDnl8yh-42" value="靶道 N / 瞄准 &lt;b&gt;N&lt;/b&gt;&lt;div&gt;(Tn-An)&lt;/div&gt;" style="verticalLabelPosition=bottom;verticalAlign=top;html=1;strokeWidth=4;shape=mxgraph.flowchart.on-page_reference;plain-blue;gradientColor=none;fillColor=#D5E8D4;strokeColor=#000000;dashed=1;dashPattern=1 2;" vertex="1" parent="KsJybWhY3H7V5RDnl8yh-1">
          <mxGeometry x="579.25" y="1150" width="30" height="30" as="geometry" />
        </mxCell>
        <mxCell id="KsJybWhY3H7V5RDnl8yh-43" style="edgeStyle=orthogonalEdgeStyle;shape=connector;curved=1;rounded=0;orthogonalLoop=1;jettySize=auto;html=1;entryX=0;entryY=0.5;entryDx=0;entryDy=0;entryPerimeter=0;dashed=1;strokeColor=default;strokeWidth=4;align=center;verticalAlign=middle;fontFamily=Helvetica;fontSize=15;fontColor=default;labelBackgroundColor=default;endArrow=none;endFill=0;" edge="1" parent="KsJybWhY3H7V5RDnl8yh-1" source="KsJybWhY3H7V5RDnl8yh-39" target="KsJybWhY3H7V5RDnl8yh-42">
          <mxGeometry relative="1" as="geometry" />
        </mxCell>
        <mxCell id="KsJybWhY3H7V5RDnl8yh-44" value="靶场 2&lt;div&gt;&lt;span style=&quot;font-weight: normal;&quot;&gt;(2024.7.27.&lt;/span&gt;2&lt;span style=&quot;font-weight: normal;&quot;&gt;)&lt;/span&gt;&lt;/div&gt;" style="text;html=1;strokeColor=none;fillColor=none;align=center;verticalAlign=middle;whiteSpace=wrap;overflow=hidden;fontSize=14;fontStyle=1;fontFamily=Courier New;" vertex="1" parent="KsJybWhY3H7V5RDnl8yh-1">
          <mxGeometry x="10" y="1040" width="110" height="42" as="geometry" />
        </mxCell>
        <mxCell id="KsJybWhY3H7V5RDnl8yh-45" value="(Range)" style="text;html=1;strokeColor=none;fillColor=none;align=center;verticalAlign=middle;whiteSpace=wrap;overflow=hidden;fontSize=14;fontStyle=0;fontColor=#009900;" vertex="1" parent="KsJybWhY3H7V5RDnl8yh-1">
          <mxGeometry x="-10" y="1076" width="146.75" height="30" as="geometry" />
        </mxCell>
        <mxCell id="KsJybWhY3H7V5RDnl8yh-46" value="&lt;font style=&quot;font-size: 14px;&quot;&gt;&lt;span style=&quot;text-align: left;&quot;&gt;完整 Prompt Code：&lt;/span&gt;&lt;br style=&quot;text-align: left;&quot;&gt;&lt;/font&gt;&lt;b style=&quot;text-align: left; font-size: 17px;&quot;&gt;&lt;font color=&quot;#00cc00&quot;&gt;&lt;span style=&quot;font-family: &amp;quot;Courier New&amp;quot;; text-align: center; background-color: rgb(251, 251, 251);&quot;&gt;2024.7.27.2&lt;/span&gt;&lt;span style=&quot;font-family: &amp;quot;Courier New&amp;quot;; text-align: center; background-color: rgb(251, 251, 251);&quot;&gt;-Tn-An&lt;/span&gt;&lt;/font&gt;&lt;/b&gt;" style="shape=callout;whiteSpace=wrap;html=1;perimeter=calloutPerimeter;fontFamily=Helvetica;fontSize=15;fontColor=default;labelBackgroundColor=default;position2=0.1;base=20;size=10;position=0.05;textShadow=0;labelBorderColor=none;verticalAlign=middle;strokeColor=#999999;" vertex="1" parent="KsJybWhY3H7V5RDnl8yh-1">
          <mxGeometry x="570" y="1070" width="210" height="70" as="geometry" />
        </mxCell>
        <mxCell id="KsJybWhY3H7V5RDnl8yh-47" style="edgeStyle=orthogonalEdgeStyle;rounded=0;orthogonalLoop=1;jettySize=auto;html=1;startArrow=none;startFill=0;dashed=1;strokeColor=default;strokeWidth=4;align=center;verticalAlign=middle;fontFamily=Helvetica;fontSize=15;fontColor=default;labelBackgroundColor=default;curved=1;dashPattern=1 4;endArrow=none;endFill=0;" edge="1" parent="KsJybWhY3H7V5RDnl8yh-1">
          <mxGeometry relative="1" as="geometry">
            <mxPoint x="140" y="1000" as="sourcePoint" />
            <mxPoint x="780" y="1000" as="targetPoint" />
          </mxGeometry>
        </mxCell>
        <mxCell id="KsJybWhY3H7V5RDnl8yh-48" style="edgeStyle=orthogonalEdgeStyle;rounded=0;orthogonalLoop=1;jettySize=auto;html=1;startArrow=none;startFill=0;dashed=1;strokeColor=default;strokeWidth=4;align=center;verticalAlign=middle;fontFamily=Helvetica;fontSize=15;fontColor=default;labelBackgroundColor=default;curved=1;dashPattern=1 4;endArrow=none;endFill=0;" edge="1" parent="KsJybWhY3H7V5RDnl8yh-1">
          <mxGeometry relative="1" as="geometry">
            <mxPoint x="140" y="1260" as="sourcePoint" />
            <mxPoint x="770" y="1260" as="targetPoint" />
          </mxGeometry>
        </mxCell>
        <mxCell id="KsJybWhY3H7V5RDnl8yh-49" style="edgeStyle=orthogonalEdgeStyle;shape=connector;curved=1;rounded=0;orthogonalLoop=1;jettySize=auto;html=1;strokeColor=default;strokeWidth=4;align=center;verticalAlign=middle;fontFamily=Helvetica;fontSize=15;fontColor=default;labelBackgroundColor=default;endArrow=none;endFill=0;" edge="1" parent="KsJybWhY3H7V5RDnl8yh-1" source="KsJybWhY3H7V5RDnl8yh-50" target="KsJybWhY3H7V5RDnl8yh-53">
          <mxGeometry relative="1" as="geometry" />
        </mxCell>
        <mxCell id="KsJybWhY3H7V5RDnl8yh-50" value="" style="verticalLabelPosition=bottom;verticalAlign=top;html=1;strokeWidth=4;shape=mxgraph.flowchart.on-page_reference;plain-blue;gradientColor=none;fillColor=#B5E3Fe;strokeColor=#000000;" vertex="1" parent="KsJybWhY3H7V5RDnl8yh-1">
          <mxGeometry x="250.88" y="1316" width="30" height="30" as="geometry" />
        </mxCell>
        <mxCell id="KsJybWhY3H7V5RDnl8yh-51" value="" style="edgeStyle=orthogonalEdgeStyle;rounded=0;html=1;jettySize=auto;orthogonalLoop=1;strokeWidth=4;endArrow=none;endFill=0;" edge="1" parent="KsJybWhY3H7V5RDnl8yh-1" target="KsJybWhY3H7V5RDnl8yh-50">
          <mxGeometry x="192.25" y="211" as="geometry">
            <mxPoint x="138.63" y="1331" as="sourcePoint" />
          </mxGeometry>
        </mxCell>
        <mxCell id="KsJybWhY3H7V5RDnl8yh-52" style="edgeStyle=orthogonalEdgeStyle;shape=connector;curved=1;rounded=0;orthogonalLoop=1;jettySize=auto;html=1;dashed=1;strokeColor=default;strokeWidth=4;align=center;verticalAlign=middle;fontFamily=Helvetica;fontSize=15;fontColor=default;labelBackgroundColor=default;endArrow=none;endFill=0;" edge="1" parent="KsJybWhY3H7V5RDnl8yh-1" source="KsJybWhY3H7V5RDnl8yh-53" target="KsJybWhY3H7V5RDnl8yh-54">
          <mxGeometry relative="1" as="geometry" />
        </mxCell>
        <mxCell id="KsJybWhY3H7V5RDnl8yh-53" value="靶道 1 / 瞄准 1&lt;div&gt;（&lt;b&gt;T&lt;/b&gt;actic / &lt;b&gt;A&lt;/b&gt;im）&lt;/div&gt;" style="verticalLabelPosition=bottom;verticalAlign=top;html=1;strokeWidth=4;shape=mxgraph.flowchart.on-page_reference;plain-purple;gradientColor=none;strokeColor=#000000;fillColor=#D5E8D4;" vertex="1" parent="KsJybWhY3H7V5RDnl8yh-1">
          <mxGeometry x="360.88" y="1316" width="30" height="30" as="geometry" />
        </mxCell>
        <mxCell id="KsJybWhY3H7V5RDnl8yh-54" value="靶道 1 / 瞄准 &lt;b&gt;N&lt;/b&gt;" style="verticalLabelPosition=bottom;verticalAlign=top;html=1;strokeWidth=4;shape=mxgraph.flowchart.on-page_reference;plain-blue;gradientColor=none;fillColor=#D5E8D4;strokeColor=#000000;dashed=1;dashPattern=1 2;" vertex="1" parent="KsJybWhY3H7V5RDnl8yh-1">
          <mxGeometry x="470.88" y="1316" width="30" height="30" as="geometry" />
        </mxCell>
        <mxCell id="KsJybWhY3H7V5RDnl8yh-55" value="靶道 N / 瞄准 1&lt;br&gt;(Tn-A1)" style="verticalLabelPosition=bottom;verticalAlign=top;html=1;strokeWidth=4;shape=mxgraph.flowchart.on-page_reference;plain-blue;gradientColor=none;fillColor=#D5E8D4;strokeColor=#000000;" vertex="1" parent="KsJybWhY3H7V5RDnl8yh-1">
          <mxGeometry x="360.88" y="1420" width="30" height="30" as="geometry" />
        </mxCell>
        <mxCell id="KsJybWhY3H7V5RDnl8yh-56" value="靶道 N / 瞄准 &lt;b&gt;2&lt;/b&gt;&lt;br&gt;(Tn-A2)" style="verticalLabelPosition=bottom;verticalAlign=top;html=1;strokeWidth=4;shape=mxgraph.flowchart.on-page_reference;plain-blue;gradientColor=none;fillColor=#D5E8D4;strokeColor=#000000;" vertex="1" parent="KsJybWhY3H7V5RDnl8yh-1">
          <mxGeometry x="470.88" y="1420" width="30" height="30" as="geometry" />
        </mxCell>
        <mxCell id="KsJybWhY3H7V5RDnl8yh-57" style="edgeStyle=orthogonalEdgeStyle;shape=connector;curved=1;rounded=0;orthogonalLoop=1;jettySize=auto;html=1;entryX=0;entryY=0.5;entryDx=0;entryDy=0;entryPerimeter=0;strokeColor=default;strokeWidth=4;align=center;verticalAlign=middle;fontFamily=Helvetica;fontSize=15;fontColor=default;labelBackgroundColor=default;endArrow=none;endFill=0;" edge="1" parent="KsJybWhY3H7V5RDnl8yh-1" source="KsJybWhY3H7V5RDnl8yh-50" target="KsJybWhY3H7V5RDnl8yh-55">
          <mxGeometry relative="1" as="geometry" />
        </mxCell>
        <mxCell id="KsJybWhY3H7V5RDnl8yh-58" style="edgeStyle=orthogonalEdgeStyle;shape=connector;curved=1;rounded=0;orthogonalLoop=1;jettySize=auto;html=1;entryX=0;entryY=0.5;entryDx=0;entryDy=0;entryPerimeter=0;strokeColor=default;strokeWidth=4;align=center;verticalAlign=middle;fontFamily=Helvetica;fontSize=15;fontColor=default;labelBackgroundColor=default;endArrow=none;endFill=0;" edge="1" parent="KsJybWhY3H7V5RDnl8yh-1" source="KsJybWhY3H7V5RDnl8yh-55" target="KsJybWhY3H7V5RDnl8yh-56">
          <mxGeometry relative="1" as="geometry" />
        </mxCell>
        <mxCell id="KsJybWhY3H7V5RDnl8yh-59" value="靶道 N / 瞄准 &lt;b&gt;N&lt;/b&gt;&lt;div&gt;(Tn-An)&lt;/div&gt;" style="verticalLabelPosition=bottom;verticalAlign=top;html=1;strokeWidth=4;shape=mxgraph.flowchart.on-page_reference;plain-blue;gradientColor=none;fillColor=#D5E8D4;strokeColor=#000000;dashed=1;dashPattern=1 2;" vertex="1" parent="KsJybWhY3H7V5RDnl8yh-1">
          <mxGeometry x="580.88" y="1420" width="30" height="30" as="geometry" />
        </mxCell>
        <mxCell id="KsJybWhY3H7V5RDnl8yh-60" style="edgeStyle=orthogonalEdgeStyle;shape=connector;curved=1;rounded=0;orthogonalLoop=1;jettySize=auto;html=1;entryX=0;entryY=0.5;entryDx=0;entryDy=0;entryPerimeter=0;dashed=1;strokeColor=default;strokeWidth=4;align=center;verticalAlign=middle;fontFamily=Helvetica;fontSize=15;fontColor=default;labelBackgroundColor=default;endArrow=none;endFill=0;" edge="1" parent="KsJybWhY3H7V5RDnl8yh-1" source="KsJybWhY3H7V5RDnl8yh-56" target="KsJybWhY3H7V5RDnl8yh-59">
          <mxGeometry relative="1" as="geometry" />
        </mxCell>
        <mxCell id="KsJybWhY3H7V5RDnl8yh-61" value="靶场 n&lt;div&gt;&lt;span style=&quot;font-weight: normal;&quot;&gt;(yyyy.M.d.&lt;/span&gt;n&lt;span style=&quot;font-weight: normal;&quot;&gt;)&lt;/span&gt;&lt;/div&gt;" style="text;html=1;strokeColor=none;fillColor=none;align=center;verticalAlign=middle;whiteSpace=wrap;overflow=hidden;fontSize=14;fontStyle=1;fontFamily=Courier New;" vertex="1" parent="KsJybWhY3H7V5RDnl8yh-1">
          <mxGeometry x="11.629999999999999" y="1310" width="110" height="42" as="geometry" />
        </mxCell>
        <mxCell id="KsJybWhY3H7V5RDnl8yh-62" value="(Range)" style="text;html=1;strokeColor=none;fillColor=none;align=center;verticalAlign=middle;whiteSpace=wrap;overflow=hidden;fontSize=14;fontStyle=0;fontColor=#009900;" vertex="1" parent="KsJybWhY3H7V5RDnl8yh-1">
          <mxGeometry x="-8.370000000000001" y="1346" width="146.75" height="30" as="geometry" />
        </mxCell>
        <mxCell id="KsJybWhY3H7V5RDnl8yh-63" value="&lt;font style=&quot;font-size: 14px;&quot;&gt;&lt;span style=&quot;text-align: left;&quot;&gt;完整 Prompt Code：&lt;/span&gt;&lt;br style=&quot;text-align: left;&quot;&gt;&lt;/font&gt;&lt;b style=&quot;text-align: left; font-size: 17px;&quot;&gt;&lt;font color=&quot;#00cc00&quot;&gt;&lt;span style=&quot;font-family: &amp;quot;Courier New&amp;quot;; text-align: center; background-color: rgb(251, 251, 251);&quot;&gt;yyyy.M.d.n&lt;/span&gt;&lt;span style=&quot;font-family: &amp;quot;Courier New&amp;quot;; text-align: center; background-color: rgb(251, 251, 251);&quot;&gt;-Tn-An&lt;/span&gt;&lt;/font&gt;&lt;/b&gt;" style="shape=callout;whiteSpace=wrap;html=1;perimeter=calloutPerimeter;fontFamily=Helvetica;fontSize=15;fontColor=default;labelBackgroundColor=default;position2=0.1;base=20;size=10;position=0.05;textShadow=0;labelBorderColor=none;verticalAlign=middle;strokeColor=#999999;" vertex="1" parent="KsJybWhY3H7V5RDnl8yh-1">
          <mxGeometry x="571.63" y="1340" width="210" height="70" as="geometry" />
        </mxCell>
        <mxCell id="KsJybWhY3H7V5RDnl8yh-64" value="&lt;font style=&quot;font-size: 20px;&quot;&gt;PromptRange&lt;/font&gt;" style="shape=curlyBracket;whiteSpace=wrap;html=1;rounded=1;labelPosition=left;verticalLabelPosition=middle;align=right;verticalAlign=middle;fontFamily=Helvetica;fontSize=15;fontColor=default;labelBackgroundColor=default;strokeWidth=3;" vertex="1" parent="KsJybWhY3H7V5RDnl8yh-1">
          <mxGeometry x="-30" y="730" width="30" height="600" as="geometry" />
        </mxCell>
        <mxCell id="KsJybWhY3H7V5RDnl8yh-65" value="" style="endArrow=none;html=1;rounded=0;strokeColor=default;strokeWidth=1;align=center;verticalAlign=middle;fontFamily=Helvetica;fontSize=15;fontColor=default;labelBackgroundColor=default;exitX=0;exitY=0.5;exitDx=0;exitDy=0;exitPerimeter=0;entryX=0.007;entryY=1.066;entryDx=0;entryDy=0;curved=0;entryPerimeter=0;" edge="1" parent="KsJybWhY3H7V5RDnl8yh-1" source="KsJybWhY3H7V5RDnl8yh-20" target="KsJybWhY3H7V5RDnl8yh-71">
          <mxGeometry width="50" height="50" relative="1" as="geometry">
            <mxPoint x="1134" y="692" as="sourcePoint" />
            <mxPoint x="810" y="560" as="targetPoint" />
          </mxGeometry>
        </mxCell>
        <mxCell id="KsJybWhY3H7V5RDnl8yh-66" value="" style="group" vertex="1" connectable="0" parent="KsJybWhY3H7V5RDnl8yh-1">
          <mxGeometry x="390" y="430" width="330" height="155" as="geometry" />
        </mxCell>
        <mxCell id="KsJybWhY3H7V5RDnl8yh-67" value="&lt;font color=&quot;#00cc00&quot; style=&quot;font-size: 13px;&quot;&gt;2024.7.27.1&lt;/font&gt;&lt;div style=&quot;font-size: 14px;&quot;&gt;靶场名称，以靶场创建日期为前缀，最后 &lt;font color=&quot;#00cc00&quot;&gt;&lt;b&gt;.1&lt;/b&gt;&lt;/font&gt; 表示当天创建的第&amp;nbsp; 1 个靶场。&lt;/div&gt;" style="html=1;shadow=0;dashed=0;shape=mxgraph.bootstrap.popover;fillColor=#ffffff;strokeColor=#CCCCCC;dx=94.48;dy=5.49;rSize=5;whiteSpace=wrap;verticalAlign=top;spacing=10;fontSize=13;spacingLeft=0;align=left;spacingTop=-5;fontFamily=Helvetica;fontColor=default;labelBackgroundColor=default;" vertex="1" parent="KsJybWhY3H7V5RDnl8yh-66">
          <mxGeometry width="145" height="110" as="geometry" />
        </mxCell>
        <mxCell id="KsJybWhY3H7V5RDnl8yh-68" value="&lt;font color=&quot;#00cc00&quot; style=&quot;font-size: 14px;&quot;&gt;T1.1&lt;/font&gt;&lt;div style=&quot;font-size: 14px;&quot;&gt;当前靶道的编号，按照层级表示。&lt;/div&gt;" style="html=1;shadow=0;dashed=0;shape=mxgraph.bootstrap.popover;fillColor=#ffffff;strokeColor=#CCCCCC;dx=44.04;dy=5.87;rSize=5;whiteSpace=wrap;verticalAlign=top;spacing=10;fontSize=13;spacingLeft=0;align=left;spacingTop=-5;fontFamily=Helvetica;fontColor=default;labelBackgroundColor=default;" vertex="1" parent="KsJybWhY3H7V5RDnl8yh-66">
          <mxGeometry x="151.88" width="80" height="110" as="geometry" />
        </mxCell>
        <mxCell id="KsJybWhY3H7V5RDnl8yh-69" value="&lt;font color=&quot;#00cc00&quot; style=&quot;font-size: 14px;&quot;&gt;A2&lt;/font&gt;&lt;br style=&quot;font-size: 13px;&quot;&gt;&lt;div style=&quot;font-size: 13px;&quot;&gt;当前靶道下第 2 次瞄准，始终为整数。&lt;/div&gt;" style="html=1;shadow=0;dashed=0;shape=mxgraph.bootstrap.popover;fillColor=#ffffff;strokeColor=#CCCCCC;dx=12.58;dy=6.94;rSize=5;whiteSpace=wrap;verticalAlign=top;spacing=10;fontSize=13;spacingLeft=0;align=left;spacingTop=-5;fontFamily=Helvetica;fontColor=default;labelBackgroundColor=default;" vertex="1" parent="KsJybWhY3H7V5RDnl8yh-66">
          <mxGeometry x="238.5" width="91.5" height="110" as="geometry" />
        </mxCell>
        <mxCell id="KsJybWhY3H7V5RDnl8yh-70" value="&lt;font style=&quot;font-size: 15px;&quot;&gt;&amp;nbsp;Prompt Code&amp;nbsp;&lt;/font&gt;" style="shape=partialRectangle;whiteSpace=wrap;html=1;bottom=1;right=1;left=1;top=0;fillColor=none;routingCenterX=-0.5;fontFamily=Helvetica;fontSize=13;fontColor=default;labelBackgroundColor=default;spacingTop=40;" vertex="1" parent="KsJybWhY3H7V5RDnl8yh-66">
          <mxGeometry x="25.129999999999995" y="110" width="249.87" height="45" as="geometry" />
        </mxCell>
        <mxCell id="KsJybWhY3H7V5RDnl8yh-71" value="&lt;font color=&quot;#00cc00&quot; style=&quot;font-size: 25px;&quot;&gt;2024.7.27.1-T1.1-A2&lt;/font&gt;" style="text;html=1;align=center;verticalAlign=middle;resizable=0;points=[];autosize=1;strokeColor=none;fillColor=none;fontFamily=Helvetica;fontSize=25;fontColor=default;labelBackgroundColor=default;" vertex="1" parent="KsJybWhY3H7V5RDnl8yh-66">
          <mxGeometry x="24.50999999999999" y="110" width="250" height="40" as="geometry" />
        </mxCell>
        <mxCell id="mFHRvIlZPquwHNuuwSrR-0" value="" style="verticalLabelPosition=bottom;verticalAlign=top;html=1;strokeWidth=4;shape=mxgraph.flowchart.on-page_reference;plain-blue;gradientColor=none;fillColor=#B5E3Fe;strokeColor=#000000;" vertex="1" parent="KsJybWhY3H7V5RDnl8yh-1">
          <mxGeometry x="249" y="20" width="30" height="30" as="geometry" />
        </mxCell>
        <mxCell id="mFHRvIlZPquwHNuuwSrR-1" value="" style="edgeStyle=orthogonalEdgeStyle;rounded=0;html=1;jettySize=auto;orthogonalLoop=1;strokeWidth=4;endArrow=none;endFill=0;" edge="1" parent="KsJybWhY3H7V5RDnl8yh-1" target="mFHRvIlZPquwHNuuwSrR-0">
          <mxGeometry x="192.25" y="211" as="geometry">
            <mxPoint x="136.75" y="35" as="sourcePoint" />
          </mxGeometry>
        </mxCell>
        <mxCell id="mFHRvIlZPquwHNuuwSrR-3" value="靶道 1 / 瞄准 1&lt;div&gt;（&lt;b&gt;T&lt;/b&gt;actic / &lt;b&gt;A&lt;/b&gt;im）&lt;/div&gt;" style="verticalLabelPosition=bottom;verticalAlign=top;html=1;strokeWidth=4;shape=mxgraph.flowchart.on-page_reference;plain-purple;gradientColor=none;strokeColor=#000000;fillColor=#D5E8D4;" vertex="1" parent="KsJybWhY3H7V5RDnl8yh-1">
          <mxGeometry x="359" y="20" width="30" height="30" as="geometry" />
        </mxCell>
        <mxCell id="mFHRvIlZPquwHNuuwSrR-4" style="edgeStyle=orthogonalEdgeStyle;shape=connector;curved=1;rounded=0;orthogonalLoop=1;jettySize=auto;html=1;entryX=0;entryY=0.5;entryDx=0;entryDy=0;entryPerimeter=0;strokeColor=default;strokeWidth=4;align=center;verticalAlign=middle;fontFamily=Helvetica;fontSize=15;fontColor=default;labelBackgroundColor=default;endArrow=none;endFill=0;" edge="1" parent="KsJybWhY3H7V5RDnl8yh-1" source="mFHRvIlZPquwHNuuwSrR-0" target="mFHRvIlZPquwHNuuwSrR-3">
          <mxGeometry relative="1" as="geometry" />
        </mxCell>
        <mxCell id="mFHRvIlZPquwHNuuwSrR-5" value="" style="edgeStyle=orthogonalEdgeStyle;shape=connector;curved=1;rounded=0;orthogonalLoop=1;jettySize=auto;html=1;strokeColor=default;strokeWidth=4;align=center;verticalAlign=middle;fontFamily=Helvetica;fontSize=15;fontColor=default;labelBackgroundColor=default;endArrow=none;endFill=0;" edge="1" parent="KsJybWhY3H7V5RDnl8yh-1" target="mFHRvIlZPquwHNuuwSrR-10">
          <mxGeometry relative="1" as="geometry">
            <mxPoint x="390" y="35" as="sourcePoint" />
          </mxGeometry>
        </mxCell>
        <mxCell id="mFHRvIlZPquwHNuuwSrR-8" value="靶道 2 / 瞄准 1" style="verticalLabelPosition=bottom;verticalAlign=top;html=1;strokeWidth=4;shape=mxgraph.flowchart.on-page_reference;fillColor=#fff2cc;strokeColor=#d6b656;dashed=1;" vertex="1" parent="KsJybWhY3H7V5RDnl8yh-1">
          <mxGeometry x="359" y="114" width="30" height="30" as="geometry" />
        </mxCell>
        <mxCell id="mFHRvIlZPquwHNuuwSrR-10" value="靶道 1 / 瞄准 &lt;b&gt;3&lt;/b&gt;&lt;div&gt;(T1-A3）&lt;/div&gt;" style="verticalLabelPosition=bottom;verticalAlign=top;html=1;strokeWidth=4;shape=mxgraph.flowchart.on-page_reference;strokeColor=#b85450;fillColor=#f8cecc;" vertex="1" parent="KsJybWhY3H7V5RDnl8yh-1">
          <mxGeometry x="470" y="20" width="30" height="30" as="geometry" />
        </mxCell>
        <mxCell id="mFHRvIlZPquwHNuuwSrR-20" style="edgeStyle=orthogonalEdgeStyle;shape=connector;curved=1;rounded=0;orthogonalLoop=1;jettySize=auto;html=1;entryX=0;entryY=0.5;entryDx=0;entryDy=0;entryPerimeter=0;strokeColor=#d6b656;strokeWidth=4;align=center;verticalAlign=middle;fontFamily=Helvetica;fontSize=15;fontColor=default;labelBackgroundColor=default;endArrow=none;endFill=0;dashed=1;fillColor=#fff2cc;" edge="1" parent="KsJybWhY3H7V5RDnl8yh-1" source="mFHRvIlZPquwHNuuwSrR-0" target="mFHRvIlZPquwHNuuwSrR-8">
          <mxGeometry relative="1" as="geometry" />
        </mxCell>
        <mxCell id="mFHRvIlZPquwHNuuwSrR-28" value="" style="verticalLabelPosition=bottom;verticalAlign=top;html=1;strokeWidth=4;shape=mxgraph.flowchart.on-page_reference;plain-blue;gradientColor=none;fillColor=#B5E3Fe;strokeColor=#000000;" vertex="1" parent="KsJybWhY3H7V5RDnl8yh-1">
          <mxGeometry x="802.25" y="100" width="30" height="30" as="geometry" />
        </mxCell>
        <mxCell id="mFHRvIlZPquwHNuuwSrR-29" value="" style="edgeStyle=orthogonalEdgeStyle;rounded=0;html=1;jettySize=auto;orthogonalLoop=1;strokeWidth=4;endArrow=none;endFill=0;" edge="1" parent="KsJybWhY3H7V5RDnl8yh-1" target="mFHRvIlZPquwHNuuwSrR-28">
          <mxGeometry x="192.25" y="211" as="geometry">
            <mxPoint x="690" y="115" as="sourcePoint" />
          </mxGeometry>
        </mxCell>
        <mxCell id="mFHRvIlZPquwHNuuwSrR-30" value="靶道 1 / 瞄准 1&lt;div&gt;（&lt;b&gt;T&lt;/b&gt;actic / &lt;b&gt;A&lt;/b&gt;im）&lt;/div&gt;" style="verticalLabelPosition=bottom;verticalAlign=top;html=1;strokeWidth=4;shape=mxgraph.flowchart.on-page_reference;plain-purple;gradientColor=none;strokeColor=#000000;fillColor=#D5E8D4;" vertex="1" parent="KsJybWhY3H7V5RDnl8yh-1">
          <mxGeometry x="912.25" y="100" width="30" height="30" as="geometry" />
        </mxCell>
        <mxCell id="mFHRvIlZPquwHNuuwSrR-31" style="edgeStyle=orthogonalEdgeStyle;shape=connector;curved=1;rounded=0;orthogonalLoop=1;jettySize=auto;html=1;entryX=0;entryY=0.5;entryDx=0;entryDy=0;entryPerimeter=0;strokeColor=default;strokeWidth=4;align=center;verticalAlign=middle;fontFamily=Helvetica;fontSize=15;fontColor=default;labelBackgroundColor=default;endArrow=none;endFill=0;" edge="1" parent="KsJybWhY3H7V5RDnl8yh-1" source="mFHRvIlZPquwHNuuwSrR-28" target="mFHRvIlZPquwHNuuwSrR-30">
          <mxGeometry relative="1" as="geometry" />
        </mxCell>
        <mxCell id="mFHRvIlZPquwHNuuwSrR-32" value="" style="edgeStyle=orthogonalEdgeStyle;shape=connector;curved=1;rounded=0;orthogonalLoop=1;jettySize=auto;html=1;strokeColor=default;strokeWidth=4;align=center;verticalAlign=middle;fontFamily=Helvetica;fontSize=15;fontColor=default;labelBackgroundColor=default;endArrow=none;endFill=0;" edge="1" parent="KsJybWhY3H7V5RDnl8yh-1" target="mFHRvIlZPquwHNuuwSrR-34">
          <mxGeometry relative="1" as="geometry">
            <mxPoint x="943.25" y="115" as="sourcePoint" />
          </mxGeometry>
        </mxCell>
        <mxCell id="mFHRvIlZPquwHNuuwSrR-33" value="靶道 1.1 / 瞄准 1" style="verticalLabelPosition=bottom;verticalAlign=top;html=1;strokeWidth=4;shape=mxgraph.flowchart.on-page_reference;fillColor=#fff2cc;strokeColor=#d6b656;dashed=1;" vertex="1" parent="KsJybWhY3H7V5RDnl8yh-1">
          <mxGeometry x="1080" y="230" width="30" height="30" as="geometry" />
        </mxCell>
        <mxCell id="mFHRvIlZPquwHNuuwSrR-34" value="靶道 1 / 瞄准 &lt;b&gt;3&lt;/b&gt;&lt;div&gt;(T1-A3）&lt;/div&gt;" style="verticalLabelPosition=bottom;verticalAlign=top;html=1;strokeWidth=4;shape=mxgraph.flowchart.on-page_reference;strokeColor=#b85450;fillColor=#f8cecc;" vertex="1" parent="KsJybWhY3H7V5RDnl8yh-1">
          <mxGeometry x="1023.25" y="100" width="30" height="30" as="geometry" />
        </mxCell>
        <mxCell id="mFHRvIlZPquwHNuuwSrR-35" style="edgeStyle=orthogonalEdgeStyle;shape=connector;curved=1;rounded=0;orthogonalLoop=1;jettySize=auto;html=1;entryX=0;entryY=0.5;entryDx=0;entryDy=0;entryPerimeter=0;strokeColor=#d6b656;strokeWidth=4;align=center;verticalAlign=middle;fontFamily=Helvetica;fontSize=15;fontColor=default;labelBackgroundColor=default;endArrow=none;endFill=0;dashed=1;fillColor=#fff2cc;exitX=1;exitY=0.5;exitDx=0;exitDy=0;exitPerimeter=0;" edge="1" parent="KsJybWhY3H7V5RDnl8yh-1" source="mFHRvIlZPquwHNuuwSrR-41" target="mFHRvIlZPquwHNuuwSrR-33">
          <mxGeometry relative="1" as="geometry">
            <mxPoint x="1050" y="113.5" as="sourcePoint" />
          </mxGeometry>
        </mxCell>
        <mxCell id="mFHRvIlZPquwHNuuwSrR-36" value="" style="verticalLabelPosition=bottom;verticalAlign=top;html=1;strokeWidth=4;shape=mxgraph.flowchart.on-page_reference;plain-blue;gradientColor=none;fillColor=#B5E3Fe;strokeColor=#000000;" vertex="1" parent="KsJybWhY3H7V5RDnl8yh-1">
          <mxGeometry x="752.25" y="230" width="30" height="30" as="geometry" />
        </mxCell>
        <mxCell id="mFHRvIlZPquwHNuuwSrR-37" value="" style="edgeStyle=orthogonalEdgeStyle;rounded=0;html=1;jettySize=auto;orthogonalLoop=1;strokeWidth=4;endArrow=none;endFill=0;" edge="1" parent="KsJybWhY3H7V5RDnl8yh-1" target="mFHRvIlZPquwHNuuwSrR-36">
          <mxGeometry x="192.25" y="211" as="geometry">
            <mxPoint x="640" y="245" as="sourcePoint" />
          </mxGeometry>
        </mxCell>
        <mxCell id="mFHRvIlZPquwHNuuwSrR-38" value="靶道 1 / 瞄准 1&lt;div&gt;（&lt;b&gt;T&lt;/b&gt;actic / &lt;b&gt;A&lt;/b&gt;im）&lt;/div&gt;" style="verticalLabelPosition=bottom;verticalAlign=top;html=1;strokeWidth=4;shape=mxgraph.flowchart.on-page_reference;plain-purple;gradientColor=none;strokeColor=#000000;fillColor=#D5E8D4;" vertex="1" parent="KsJybWhY3H7V5RDnl8yh-1">
          <mxGeometry x="862.25" y="230" width="30" height="30" as="geometry" />
        </mxCell>
        <mxCell id="mFHRvIlZPquwHNuuwSrR-39" style="edgeStyle=orthogonalEdgeStyle;shape=connector;curved=1;rounded=0;orthogonalLoop=1;jettySize=auto;html=1;entryX=0;entryY=0.5;entryDx=0;entryDy=0;entryPerimeter=0;strokeColor=default;strokeWidth=4;align=center;verticalAlign=middle;fontFamily=Helvetica;fontSize=15;fontColor=default;labelBackgroundColor=default;endArrow=none;endFill=0;" edge="1" parent="KsJybWhY3H7V5RDnl8yh-1" source="mFHRvIlZPquwHNuuwSrR-36" target="mFHRvIlZPquwHNuuwSrR-38">
          <mxGeometry relative="1" as="geometry" />
        </mxCell>
        <mxCell id="mFHRvIlZPquwHNuuwSrR-40" value="" style="edgeStyle=orthogonalEdgeStyle;shape=connector;curved=1;rounded=0;orthogonalLoop=1;jettySize=auto;html=1;strokeColor=default;strokeWidth=4;align=center;verticalAlign=middle;fontFamily=Helvetica;fontSize=15;fontColor=default;labelBackgroundColor=default;endArrow=none;endFill=0;" edge="1" parent="KsJybWhY3H7V5RDnl8yh-1" target="mFHRvIlZPquwHNuuwSrR-41">
          <mxGeometry relative="1" as="geometry">
            <mxPoint x="893.25" y="245" as="sourcePoint" />
          </mxGeometry>
        </mxCell>
        <mxCell id="mFHRvIlZPquwHNuuwSrR-41" value="靶道 1 / 瞄准 &lt;b&gt;3&lt;/b&gt;&lt;div&gt;(T1-A3）&lt;/div&gt;" style="verticalLabelPosition=bottom;verticalAlign=top;html=1;strokeWidth=4;shape=mxgraph.flowchart.on-page_reference;strokeColor=#b85450;fillColor=#f8cecc;" vertex="1" parent="KsJybWhY3H7V5RDnl8yh-1">
          <mxGeometry x="973.25" y="230" width="30" height="30" as="geometry" />
        </mxCell>
      </root>
    </mxGraphModel>
  </diagram>
  <diagram id="aTn6qLFczZVBgPs2mzQH" name="第 3 页">
    <mxGraphModel grid="1" page="1" gridSize="10" guides="1" tooltips="1" connect="1" arrows="1" fold="1" pageScale="1" pageWidth="827" pageHeight="1169" math="0" shadow="0">
      <root>
        <mxCell id="0" />
        <mxCell id="1" parent="0" />
      </root>
    </mxGraphModel>
  </diagram>
  <diagram id="yPxyJZ8AM_hMuL3Unpa9" name="Sample">
    <mxGraphModel dx="1181" dy="864" grid="1" gridSize="10" guides="1" tooltips="1" connect="1" arrows="1" fold="1" page="1" pageScale="1" pageWidth="1100" pageHeight="850" math="0" shadow="0">
      <root>
        <mxCell id="0" />
        <mxCell id="1" parent="0" />
        <mxCell id="uWUnNED6HEl2aK5fdaIb-7" value="Hotfix Commit" style="text;html=1;strokeColor=none;fillColor=none;align=center;verticalAlign=middle;whiteSpace=wrap;overflow=hidden;" parent="1" vertex="1">
          <mxGeometry x="427.25" y="226" width="80" height="30" as="geometry" />
        </mxCell>
        <mxCell id="uWUnNED6HEl2aK5fdaIb-8" value="" style="edgeStyle=orthogonalEdgeStyle;rounded=0;html=1;jettySize=auto;orthogonalLoop=1;plain-blue;endArrow=none;endFill=0;strokeWidth=4;strokeColor=#000000;entryX=0;entryY=0.5;entryDx=0;entryDy=0;entryPerimeter=0;" parent="1" source="uWUnNED6HEl2aK5fdaIb-10" target="9hBKPDzoitwpIBdzFDQ7-16" edge="1">
          <mxGeometry x="292.25" y="211" as="geometry">
            <mxPoint x="442.25" y="211" as="targetPoint" />
          </mxGeometry>
        </mxCell>
        <mxCell id="uWUnNED6HEl2aK5fdaIb-9" style="edgeStyle=orthogonalEdgeStyle;curved=1;rounded=0;html=1;exitX=1;exitY=0.5;exitPerimeter=0;entryX=0;entryY=0.5;entryPerimeter=0;endArrow=none;endFill=0;jettySize=auto;orthogonalLoop=1;strokeWidth=4;fontSize=15;" parent="1" source="uWUnNED6HEl2aK5fdaIb-10" target="uWUnNED6HEl2aK5fdaIb-15" edge="1">
          <mxGeometry relative="1" as="geometry" />
        </mxCell>
        <mxCell id="uWUnNED6HEl2aK5fdaIb-10" value="" style="verticalLabelPosition=bottom;verticalAlign=top;html=1;strokeWidth=4;shape=mxgraph.flowchart.on-page_reference;plain-blue;gradientColor=none;fillColor=#B5E3Fe;strokeColor=#000000;" parent="1" vertex="1">
          <mxGeometry x="262.25" y="196" width="30" height="30" as="geometry" />
        </mxCell>
        <mxCell id="uWUnNED6HEl2aK5fdaIb-80" value="" style="edgeStyle=orthogonalEdgeStyle;curved=1;rounded=0;orthogonalLoop=1;jettySize=auto;html=1;endArrow=none;endFill=0;strokeWidth=4;entryX=0;entryY=0.5;entryDx=0;entryDy=0;entryPerimeter=0;" parent="1" source="uWUnNED6HEl2aK5fdaIb-11" target="uWUnNED6HEl2aK5fdaIb-109" edge="1">
          <mxGeometry relative="1" as="geometry">
            <mxPoint x="734.4999999999995" y="211" as="targetPoint" />
          </mxGeometry>
        </mxCell>
        <mxCell id="uWUnNED6HEl2aK5fdaIb-105" style="edgeStyle=orthogonalEdgeStyle;curved=1;rounded=0;orthogonalLoop=1;jettySize=auto;html=1;exitX=1;exitY=0.5;exitDx=0;exitDy=0;exitPerimeter=0;entryX=0;entryY=0.5;entryDx=0;entryDy=0;entryPerimeter=0;endArrow=none;endFill=0;strokeWidth=4;fontFamily=Courier New;fontColor=#009900;" parent="1" source="uWUnNED6HEl2aK5fdaIb-11" target="uWUnNED6HEl2aK5fdaIb-104" edge="1">
          <mxGeometry relative="1" as="geometry" />
        </mxCell>
        <mxCell id="uWUnNED6HEl2aK5fdaIb-11" value="" style="verticalLabelPosition=bottom;verticalAlign=top;html=1;strokeWidth=4;shape=mxgraph.flowchart.on-page_reference;plain-blue;gradientColor=none;strokeColor=#000000;fillColor=#B5E3FE;" parent="1" vertex="1">
          <mxGeometry x="622.25" y="196" width="30" height="30" as="geometry" />
        </mxCell>
        <mxCell id="uWUnNED6HEl2aK5fdaIb-109" value="" style="verticalLabelPosition=bottom;verticalAlign=top;html=1;strokeWidth=4;shape=mxgraph.flowchart.on-page_reference;plain-blue;gradientColor=none;strokeColor=#33001A;fillColor=#B5E3FE;" parent="1" vertex="1">
          <mxGeometry x="861.25" y="196" width="30" height="30" as="geometry" />
        </mxCell>
        <mxCell id="uWUnNED6HEl2aK5fdaIb-12" value="" style="edgeStyle=orthogonalEdgeStyle;rounded=0;html=1;jettySize=auto;orthogonalLoop=1;strokeWidth=4;endArrow=none;endFill=0;" parent="1" target="uWUnNED6HEl2aK5fdaIb-10" edge="1">
          <mxGeometry x="192.25" y="211" as="geometry">
            <mxPoint x="150" y="211" as="sourcePoint" />
          </mxGeometry>
        </mxCell>
        <mxCell id="uWUnNED6HEl2aK5fdaIb-13" value="main" style="text;html=1;strokeColor=none;fillColor=none;align=center;verticalAlign=middle;whiteSpace=wrap;overflow=hidden;fontSize=14;fontStyle=1;fontFamily=Courier New;" parent="1" vertex="1">
          <mxGeometry x="83" y="190" width="50" height="42" as="geometry" />
        </mxCell>
        <mxCell id="uWUnNED6HEl2aK5fdaIb-14" style="edgeStyle=orthogonalEdgeStyle;curved=1;rounded=0;html=1;exitX=1;exitY=0.5;exitPerimeter=0;endArrow=none;endFill=0;jettySize=auto;orthogonalLoop=1;strokeWidth=4;fontSize=15;" parent="1" source="uWUnNED6HEl2aK5fdaIb-15" target="uWUnNED6HEl2aK5fdaIb-17" edge="1">
          <mxGeometry relative="1" as="geometry" />
        </mxCell>
        <mxCell id="uWUnNED6HEl2aK5fdaIb-15" value="" style="verticalLabelPosition=bottom;verticalAlign=top;html=1;strokeWidth=4;shape=mxgraph.flowchart.on-page_reference;plain-purple;gradientColor=none;strokeColor=#000000;fillColor=#D5E8D4;" parent="1" vertex="1">
          <mxGeometry x="339.75" y="281" width="30" height="30" as="geometry" />
        </mxCell>
        <mxCell id="uWUnNED6HEl2aK5fdaIb-16" style="edgeStyle=orthogonalEdgeStyle;curved=1;rounded=0;html=1;exitX=1;exitY=0.5;exitPerimeter=0;entryX=0;entryY=0.5;entryPerimeter=0;endArrow=none;endFill=0;jettySize=auto;orthogonalLoop=1;strokeWidth=4;fontSize=15;" parent="1" source="uWUnNED6HEl2aK5fdaIb-17" target="uWUnNED6HEl2aK5fdaIb-19" edge="1">
          <mxGeometry relative="1" as="geometry" />
        </mxCell>
        <mxCell id="uWUnNED6HEl2aK5fdaIb-17" value="" style="verticalLabelPosition=bottom;verticalAlign=top;html=1;strokeWidth=4;shape=mxgraph.flowchart.on-page_reference;plain-purple;gradientColor=none;strokeColor=#000000;fillColor=#D5E8D4;" parent="1" vertex="1">
          <mxGeometry x="446.75" y="281" width="30" height="30" as="geometry" />
        </mxCell>
        <mxCell id="uWUnNED6HEl2aK5fdaIb-18" style="edgeStyle=orthogonalEdgeStyle;curved=1;rounded=0;html=1;exitX=1;exitY=0.5;exitPerimeter=0;entryX=0;entryY=0.5;entryPerimeter=0;endArrow=none;endFill=0;jettySize=auto;orthogonalLoop=1;strokeWidth=4;fontSize=15;" parent="1" source="uWUnNED6HEl2aK5fdaIb-19" target="uWUnNED6HEl2aK5fdaIb-11" edge="1">
          <mxGeometry relative="1" as="geometry" />
        </mxCell>
        <mxCell id="uWUnNED6HEl2aK5fdaIb-19" value="" style="verticalLabelPosition=bottom;verticalAlign=top;html=1;strokeWidth=4;shape=mxgraph.flowchart.on-page_reference;plain-purple;gradientColor=none;strokeColor=#000000;fillColor=#D5E8D4;" parent="1" vertex="1">
          <mxGeometry x="549.75" y="281" width="30" height="30" as="geometry" />
        </mxCell>
        <mxCell id="uWUnNED6HEl2aK5fdaIb-20" value="1.1.0-release" style="text;html=1;strokeColor=none;fillColor=none;align=left;verticalAlign=middle;whiteSpace=wrap;overflow=hidden;fontSize=14;fontStyle=1;fontFamily=Courier New;" parent="1" vertex="1">
          <mxGeometry x="88.75" y="286" width="240" height="20" as="geometry" />
        </mxCell>
        <mxCell id="uWUnNED6HEl2aK5fdaIb-71" value="" style="edgeStyle=orthogonalEdgeStyle;rounded=0;orthogonalLoop=1;jettySize=auto;html=1;endArrow=none;endFill=0;strokeWidth=4;" parent="1" source="uWUnNED6HEl2aK5fdaIb-69" target="uWUnNED6HEl2aK5fdaIb-70" edge="1">
          <mxGeometry relative="1" as="geometry" />
        </mxCell>
        <mxCell id="uWUnNED6HEl2aK5fdaIb-75" style="edgeStyle=orthogonalEdgeStyle;rounded=0;orthogonalLoop=1;jettySize=auto;html=1;entryX=1;entryY=0.5;entryDx=0;entryDy=0;entryPerimeter=0;endArrow=none;endFill=0;strokeWidth=4;curved=1;" parent="1" source="uWUnNED6HEl2aK5fdaIb-69" target="uWUnNED6HEl2aK5fdaIb-15" edge="1">
          <mxGeometry relative="1" as="geometry" />
        </mxCell>
        <mxCell id="uWUnNED6HEl2aK5fdaIb-94" style="edgeStyle=orthogonalEdgeStyle;curved=1;rounded=0;orthogonalLoop=1;jettySize=auto;html=1;exitX=1;exitY=0.5;exitDx=0;exitDy=0;exitPerimeter=0;entryX=0;entryY=0.5;entryDx=0;entryDy=0;entryPerimeter=0;endArrow=none;endFill=0;strokeWidth=4;fontFamily=Courier New;fontColor=#009900;" parent="1" source="uWUnNED6HEl2aK5fdaIb-69" target="uWUnNED6HEl2aK5fdaIb-82" edge="1">
          <mxGeometry relative="1" as="geometry" />
        </mxCell>
        <mxCell id="uWUnNED6HEl2aK5fdaIb-69" value="" style="verticalLabelPosition=bottom;verticalAlign=top;html=1;strokeWidth=4;shape=mxgraph.flowchart.on-page_reference;plain-purple;gradientColor=none;strokeColor=#000000;fillColor=#D5E8D4;" parent="1" vertex="1">
          <mxGeometry x="416.75" y="361" width="30" height="30" as="geometry" />
        </mxCell>
        <mxCell id="uWUnNED6HEl2aK5fdaIb-78" value="" style="edgeStyle=orthogonalEdgeStyle;curved=1;rounded=0;orthogonalLoop=1;jettySize=auto;html=1;endArrow=none;endFill=0;strokeWidth=4;" parent="1" source="uWUnNED6HEl2aK5fdaIb-70" target="uWUnNED6HEl2aK5fdaIb-77" edge="1">
          <mxGeometry relative="1" as="geometry" />
        </mxCell>
        <mxCell id="uWUnNED6HEl2aK5fdaIb-70" value="" style="verticalLabelPosition=bottom;verticalAlign=top;html=1;strokeWidth=4;shape=mxgraph.flowchart.on-page_reference;plain-purple;gradientColor=none;strokeColor=#000000;fillColor=#D5E8D4;" parent="1" vertex="1">
          <mxGeometry x="514.75" y="361" width="30" height="30" as="geometry" />
        </mxCell>
        <mxCell id="uWUnNED6HEl2aK5fdaIb-96" value="" style="edgeStyle=orthogonalEdgeStyle;curved=1;rounded=0;orthogonalLoop=1;jettySize=auto;html=1;endArrow=none;endFill=0;strokeWidth=4;fontFamily=Courier New;fontColor=#009900;" parent="1" source="uWUnNED6HEl2aK5fdaIb-77" target="uWUnNED6HEl2aK5fdaIb-95" edge="1">
          <mxGeometry relative="1" as="geometry" />
        </mxCell>
        <mxCell id="uWUnNED6HEl2aK5fdaIb-77" value="" style="verticalLabelPosition=bottom;verticalAlign=top;html=1;strokeWidth=4;shape=mxgraph.flowchart.on-page_reference;plain-purple;gradientColor=none;strokeColor=#000000;fillColor=#D5E8D4;" parent="1" vertex="1">
          <mxGeometry x="594.75" y="361" width="30" height="30" as="geometry" />
        </mxCell>
        <mxCell id="uWUnNED6HEl2aK5fdaIb-108" style="edgeStyle=orthogonalEdgeStyle;curved=1;rounded=0;orthogonalLoop=1;jettySize=auto;html=1;entryX=0;entryY=0.5;entryDx=0;entryDy=0;entryPerimeter=0;endArrow=none;endFill=0;strokeWidth=4;fontFamily=Courier New;fontColor=#009900;" parent="1" source="uWUnNED6HEl2aK5fdaIb-95" target="uWUnNED6HEl2aK5fdaIb-106" edge="1">
          <mxGeometry relative="1" as="geometry" />
        </mxCell>
        <mxCell id="uWUnNED6HEl2aK5fdaIb-95" value="" style="verticalLabelPosition=bottom;verticalAlign=top;html=1;strokeWidth=4;shape=mxgraph.flowchart.on-page_reference;plain-purple;gradientColor=none;strokeColor=#000000;fillColor=#D5E8D4;" parent="1" vertex="1">
          <mxGeometry x="696.75" y="361" width="30" height="30" as="geometry" />
        </mxCell>
        <mxCell id="uWUnNED6HEl2aK5fdaIb-76" value="develop" style="text;html=1;strokeColor=none;fillColor=none;align=left;verticalAlign=middle;whiteSpace=wrap;overflow=hidden;fontSize=14;fontStyle=1;fontFamily=Courier New;" parent="1" vertex="1">
          <mxGeometry x="87.75" y="364" width="91" height="20" as="geometry" />
        </mxCell>
        <mxCell id="uWUnNED6HEl2aK5fdaIb-81" value="" style="edgeStyle=orthogonalEdgeStyle;rounded=0;orthogonalLoop=1;jettySize=auto;html=1;endArrow=none;endFill=0;strokeWidth=4;" parent="1" source="uWUnNED6HEl2aK5fdaIb-82" target="uWUnNED6HEl2aK5fdaIb-84" edge="1">
          <mxGeometry relative="1" as="geometry" />
        </mxCell>
        <mxCell id="uWUnNED6HEl2aK5fdaIb-82" value="" style="verticalLabelPosition=bottom;verticalAlign=top;html=1;strokeWidth=4;shape=mxgraph.flowchart.on-page_reference;plain-purple;gradientColor=none;strokeColor=#000000;fillColor=#D5E8D4;" parent="1" vertex="1">
          <mxGeometry x="500.75" y="440" width="30" height="30" as="geometry" />
        </mxCell>
        <mxCell id="uWUnNED6HEl2aK5fdaIb-97" style="edgeStyle=orthogonalEdgeStyle;curved=1;rounded=0;orthogonalLoop=1;jettySize=auto;html=1;exitX=1;exitY=0.5;exitDx=0;exitDy=0;exitPerimeter=0;entryX=0;entryY=0.5;entryDx=0;entryDy=0;entryPerimeter=0;endArrow=none;endFill=0;strokeWidth=4;fontFamily=Courier New;fontColor=#009900;" parent="1" source="uWUnNED6HEl2aK5fdaIb-84" target="uWUnNED6HEl2aK5fdaIb-95" edge="1">
          <mxGeometry relative="1" as="geometry" />
        </mxCell>
        <mxCell id="uWUnNED6HEl2aK5fdaIb-84" value="" style="verticalLabelPosition=bottom;verticalAlign=top;html=1;strokeWidth=4;shape=mxgraph.flowchart.on-page_reference;plain-purple;gradientColor=none;strokeColor=#000000;fillColor=#D5E8D4;" parent="1" vertex="1">
          <mxGeometry x="611.75" y="440" width="30" height="30" as="geometry" />
        </mxCell>
        <mxCell id="uWUnNED6HEl2aK5fdaIb-86" value="JIRA-35--example feature" style="text;html=1;strokeColor=none;fillColor=none;align=left;verticalAlign=middle;whiteSpace=wrap;overflow=hidden;fontSize=14;fontStyle=1;fontFamily=Courier New;" parent="1" vertex="1">
          <mxGeometry x="87.5" y="445" width="240" height="20" as="geometry" />
        </mxCell>
        <mxCell id="uWUnNED6HEl2aK5fdaIb-87" value="The development or sprint branch" style="text;html=1;strokeColor=none;fillColor=none;align=left;verticalAlign=middle;whiteSpace=wrap;overflow=hidden;fontSize=14;fontStyle=0;fontColor=#009900;" parent="1" vertex="1">
          <mxGeometry x="85.75" y="384" width="240" height="20" as="geometry" />
        </mxCell>
        <mxCell id="uWUnNED6HEl2aK5fdaIb-88" value="Your feature branch" style="text;html=1;strokeColor=none;fillColor=none;align=left;verticalAlign=middle;whiteSpace=wrap;overflow=hidden;fontSize=14;fontStyle=0;fontColor=#009900;" parent="1" vertex="1">
          <mxGeometry x="85.75" y="465" width="240" height="20" as="geometry" />
        </mxCell>
        <mxCell id="uWUnNED6HEl2aK5fdaIb-89" value="The release branch" style="text;html=1;strokeColor=none;fillColor=none;align=left;verticalAlign=middle;whiteSpace=wrap;overflow=hidden;fontSize=14;fontStyle=0;fontColor=#009900;" parent="1" vertex="1">
          <mxGeometry x="86.75" y="306" width="240" height="20" as="geometry" />
        </mxCell>
        <mxCell id="uWUnNED6HEl2aK5fdaIb-90" value="The main branch&lt;br&gt;" style="text;html=1;strokeColor=none;fillColor=none;align=left;verticalAlign=middle;whiteSpace=wrap;overflow=hidden;fontSize=14;fontStyle=0;fontColor=#009900;" parent="1" vertex="1">
          <mxGeometry x="88.25" y="220" width="146.75" height="20" as="geometry" />
        </mxCell>
        <mxCell id="uWUnNED6HEl2aK5fdaIb-91" value="" style="endArrow=classic;html=1;strokeWidth=1;fontFamily=Courier New;fontColor=#009900;" parent="1" edge="1">
          <mxGeometry width="50" height="50" relative="1" as="geometry">
            <mxPoint x="306.75" y="454.5" as="sourcePoint" />
            <mxPoint x="456.75" y="455" as="targetPoint" />
          </mxGeometry>
        </mxCell>
        <mxCell id="uWUnNED6HEl2aK5fdaIb-92" value="" style="endArrow=classic;html=1;strokeWidth=1;fontFamily=Courier New;fontColor=#009900;" parent="1" edge="1">
          <mxGeometry width="50" height="50" relative="1" as="geometry">
            <mxPoint x="186.75" y="374" as="sourcePoint" />
            <mxPoint x="376.75" y="374" as="targetPoint" />
          </mxGeometry>
        </mxCell>
        <mxCell id="uWUnNED6HEl2aK5fdaIb-93" value="" style="endArrow=classic;html=1;strokeWidth=1;fontFamily=Courier New;fontColor=#009900;" parent="1" edge="1">
          <mxGeometry width="50" height="50" relative="1" as="geometry">
            <mxPoint x="216.75" y="296" as="sourcePoint" />
            <mxPoint x="296.75" y="296" as="targetPoint" />
          </mxGeometry>
        </mxCell>
        <mxCell id="uWUnNED6HEl2aK5fdaIb-101" value="Tag: 1.1.0" style="text;html=1;strokeColor=none;fillColor=none;align=center;verticalAlign=middle;whiteSpace=wrap;overflow=hidden;fontSize=14;" parent="1" vertex="1">
          <mxGeometry x="590.25" y="170" width="110" height="20" as="geometry" />
        </mxCell>
        <mxCell id="uWUnNED6HEl2aK5fdaIb-103" value="Tag: 1.0.0" style="text;html=1;strokeColor=none;fillColor=none;align=center;verticalAlign=middle;whiteSpace=wrap;overflow=hidden;fontSize=14;" parent="1" vertex="1">
          <mxGeometry x="242.25" y="170" width="70" height="20" as="geometry" />
        </mxCell>
        <mxCell id="uWUnNED6HEl2aK5fdaIb-107" value="" style="edgeStyle=orthogonalEdgeStyle;curved=1;rounded=0;orthogonalLoop=1;jettySize=auto;html=1;endArrow=none;endFill=0;strokeWidth=4;fontFamily=Courier New;fontColor=#009900;" parent="1" source="uWUnNED6HEl2aK5fdaIb-104" target="uWUnNED6HEl2aK5fdaIb-106" edge="1">
          <mxGeometry relative="1" as="geometry" />
        </mxCell>
        <mxCell id="uWUnNED6HEl2aK5fdaIb-104" value="" style="verticalLabelPosition=bottom;verticalAlign=top;html=1;strokeWidth=4;shape=mxgraph.flowchart.on-page_reference;plain-purple;gradientColor=none;strokeColor=#000000;fillColor=#D5E8D4;" parent="1" vertex="1">
          <mxGeometry x="696.75" y="281" width="30" height="30" as="geometry" />
        </mxCell>
        <mxCell id="uWUnNED6HEl2aK5fdaIb-115" style="edgeStyle=orthogonalEdgeStyle;curved=1;rounded=0;orthogonalLoop=1;jettySize=auto;html=1;entryX=0;entryY=0.5;entryDx=0;entryDy=0;entryPerimeter=0;endArrow=none;endFill=0;strokeWidth=4;fontFamily=Courier New;fontColor=#009900;" parent="1" source="uWUnNED6HEl2aK5fdaIb-106" target="uWUnNED6HEl2aK5fdaIb-109" edge="1">
          <mxGeometry relative="1" as="geometry" />
        </mxCell>
        <mxCell id="uWUnNED6HEl2aK5fdaIb-106" value="" style="verticalLabelPosition=bottom;verticalAlign=top;html=1;strokeWidth=4;shape=mxgraph.flowchart.on-page_reference;plain-purple;gradientColor=none;strokeColor=#000000;fillColor=#D5E8D4;" parent="1" vertex="1">
          <mxGeometry x="786.75" y="281" width="30" height="30" as="geometry" />
        </mxCell>
        <mxCell id="uWUnNED6HEl2aK5fdaIb-116" value="Tag: 1.2.0" style="text;html=1;strokeColor=none;fillColor=none;align=center;verticalAlign=middle;whiteSpace=wrap;overflow=hidden;fontSize=14;" parent="1" vertex="1">
          <mxGeometry x="812.25" y="168" width="110" height="20" as="geometry" />
        </mxCell>
        <mxCell id="uWUnNED6HEl2aK5fdaIb-117" value="" style="endArrow=classic;html=1;strokeWidth=1;fontFamily=Courier New;fontColor=#009900;exitX=0.5;exitY=0;exitDx=0;exitDy=0;" parent="1" source="fSnZ5vnYTslC5NarKmr_-5" edge="1">
          <mxGeometry width="50" height="50" relative="1" as="geometry">
            <mxPoint x="711.25" y="635.5" as="sourcePoint" />
            <mxPoint x="711.25" y="404" as="targetPoint" />
          </mxGeometry>
        </mxCell>
        <mxCell id="fSnZ5vnYTslC5NarKmr_-1" value="" style="endArrow=classic;html=1;strokeWidth=1;fontFamily=Courier New;fontColor=#009900;" parent="1" edge="1">
          <mxGeometry width="50" height="50" relative="1" as="geometry">
            <mxPoint x="801.75" y="375" as="sourcePoint" />
            <mxPoint x="801.75" y="325" as="targetPoint" />
          </mxGeometry>
        </mxCell>
        <mxCell id="fSnZ5vnYTslC5NarKmr_-4" value="&lt;span style=&quot;text-align: center&quot;&gt;Feel free to add notes here about the process of merging into the release branch.&lt;br&gt;&lt;/span&gt;" style="text;html=1;strokeColor=none;fillColor=none;align=left;verticalAlign=middle;whiteSpace=wrap;overflow=hidden;fontSize=12;fontStyle=0;fontColor=#000000;" parent="1" vertex="1">
          <mxGeometry x="776.75" y="375" width="163.25" height="66" as="geometry" />
        </mxCell>
        <mxCell id="fSnZ5vnYTslC5NarKmr_-5" value="&lt;div style=&quot;&quot;&gt;&lt;span&gt;Feel free to add notes here about the process of merging feature branches.&lt;/span&gt;&lt;/div&gt;" style="text;html=1;strokeColor=none;fillColor=none;align=left;verticalAlign=middle;whiteSpace=wrap;overflow=hidden;fontSize=12;fontStyle=0;fontColor=#000000;" parent="1" vertex="1">
          <mxGeometry x="502.63" y="485" width="418.25" height="36" as="geometry" />
        </mxCell>
        <mxCell id="fSnZ5vnYTslC5NarKmr_-9" value="" style="edgeStyle=orthogonalEdgeStyle;rounded=0;orthogonalLoop=1;jettySize=auto;html=1;fontSize=12;fontColor=#000000;entryX=0;entryY=0.5;entryDx=0;entryDy=0;" parent="1" source="fSnZ5vnYTslC5NarKmr_-8" target="uWUnNED6HEl2aK5fdaIb-103" edge="1">
          <mxGeometry relative="1" as="geometry">
            <mxPoint x="222.25" y="180" as="targetPoint" />
            <Array as="points">
              <mxPoint x="222.25" y="180" />
              <mxPoint x="222.25" y="180" />
            </Array>
          </mxGeometry>
        </mxCell>
        <mxCell id="fSnZ5vnYTslC5NarKmr_-8" value="&lt;span style=&quot;text-align: center; font-size: 11px;&quot;&gt;Each tag represents a production release.&lt;/span&gt;" style="text;html=1;strokeColor=none;fillColor=none;align=left;verticalAlign=middle;whiteSpace=wrap;overflow=hidden;fontSize=11;fontStyle=0;fontColor=#000000;" parent="1" vertex="1">
          <mxGeometry x="94.5" y="158" width="120" height="38" as="geometry" />
        </mxCell>
        <UserObject label="Example diagram for a workflow similar to &quot;Git-flow&quot; :" link="https://nvie.com/posts/a-successful-git-branching-model/" id="9hBKPDzoitwpIBdzFDQ7-2">
          <mxCell style="text;whiteSpace=wrap;html=1;fontStyle=1;fontSize=16;" parent="1" vertex="1">
            <mxGeometry x="82.25" y="90" width="427.75" height="20" as="geometry" />
          </mxCell>
        </UserObject>
        <UserObject label="&lt;a href=&quot;https://nvie.com/posts/a-successful-git-branching-model/&quot;&gt;https://nvie.com/posts/a-successful-git-branching-model/&lt;/a&gt;" link="https://nvie.com/posts/a-successful-git-branching-model/" id="9hBKPDzoitwpIBdzFDQ7-3">
          <mxCell style="text;whiteSpace=wrap;html=1;" parent="1" vertex="1">
            <mxGeometry x="115" y="115" width="355" height="20" as="geometry" />
          </mxCell>
        </UserObject>
        <UserObject label="See:" link="https://nvie.com/posts/a-successful-git-branching-model/" id="9hBKPDzoitwpIBdzFDQ7-7">
          <mxCell style="text;whiteSpace=wrap;html=1;" parent="1" vertex="1">
            <mxGeometry x="82.25" y="115" width="32.75" height="20" as="geometry" />
          </mxCell>
        </UserObject>
        <mxCell id="9hBKPDzoitwpIBdzFDQ7-14" value="" style="endArrow=classic;html=1;strokeWidth=1;fontFamily=Courier New;fontColor=#009900;" parent="1" edge="1">
          <mxGeometry width="50" height="50" relative="1" as="geometry">
            <mxPoint x="877.25" y="280" as="sourcePoint" />
            <mxPoint x="877.25" y="240" as="targetPoint" />
          </mxGeometry>
        </mxCell>
        <mxCell id="9hBKPDzoitwpIBdzFDQ7-15" value="&lt;span style=&quot;text-align: center&quot;&gt;Feel free to add notes here about the process of merging into the release branch.&lt;br&gt;&lt;br&gt;&lt;/span&gt;" style="text;html=1;strokeColor=none;fillColor=none;align=left;verticalAlign=middle;whiteSpace=wrap;overflow=hidden;fontSize=12;fontStyle=0;fontColor=#000000;" parent="1" vertex="1">
          <mxGeometry x="852.25" y="281" width="167.75" height="81" as="geometry" />
        </mxCell>
        <mxCell id="9hBKPDzoitwpIBdzFDQ7-21" value="" style="edgeStyle=orthogonalEdgeStyle;rounded=0;orthogonalLoop=1;jettySize=auto;html=1;fontSize=15;endArrow=none;endFill=0;strokeWidth=4;entryX=0;entryY=0.5;entryDx=0;entryDy=0;entryPerimeter=0;" parent="1" source="9hBKPDzoitwpIBdzFDQ7-16" target="uWUnNED6HEl2aK5fdaIb-11" edge="1">
          <mxGeometry relative="1" as="geometry">
            <mxPoint x="560.25" y="211" as="targetPoint" />
          </mxGeometry>
        </mxCell>
        <mxCell id="9hBKPDzoitwpIBdzFDQ7-16" value="" style="verticalLabelPosition=bottom;verticalAlign=top;html=1;strokeWidth=4;shape=mxgraph.flowchart.on-page_reference;plain-blue;gradientColor=#EA6B66;strokeColor=#B85450;fillColor=#F8CECC;" parent="1" vertex="1">
          <mxGeometry x="452.25" y="196" width="30" height="30" as="geometry" />
        </mxCell>
        <mxCell id="9hBKPDzoitwpIBdzFDQ7-61" value="Tag: 1.0.1" style="text;html=1;strokeColor=none;fillColor=none;align=center;verticalAlign=middle;whiteSpace=wrap;overflow=hidden;fontSize=14;" parent="1" vertex="1">
          <mxGeometry x="428.5" y="170" width="70" height="20" as="geometry" />
        </mxCell>
      </root>
    </mxGraphModel>
  </diagram>
</mxfile>
